M48
; DRILL file {KiCad (6.0.8)} date Fri Dec  2 10:36:55 2022
; FORMAT={-:-/ absolute / metric / decimal}
; #@! TF.CreationDate,2022-12-02T10:36:55+07:00
; #@! TF.GenerationSoftware,Kicad,Pcbnew,(6.0.8)
; #@! TF.FileFunction,Plated,1,2,PTH
FMAT,2
METRIC
; #@! TA.AperFunction,Plated,PTH,ViaDrill
T1C0.600
; #@! TA.AperFunction,Plated,PTH,ComponentDrill
T2C1.000
; #@! TA.AperFunction,Plated,PTH,ComponentDrill
T3C1.600
; #@! TA.AperFunction,Plated,PTH,ComponentDrill
T4C1.700
; #@! TA.AperFunction,Plated,PTH,ComponentDrill
T5C2.150
%
G90
G05
T1
X55.196Y-79.139
X55.55Y-87.469
X56.083Y-76.689
X56.669Y-125.503
X56.765Y-74.639
X57.98Y-117.455
X58.264Y-79.517
X58.27Y-114.858
X61.257Y-56.885
X61.347Y-115.433
X61.71Y-82.721
X62.073Y-132.325
X62.261Y-123.072
X62.459Y-121.055
X62.895Y-48.356
X62.895Y-79.581
X63.223Y-81.374
X63.365Y-47.399
X63.592Y-111.385
X63.988Y-86.174
X64.013Y-114.87
X64.73Y-125.039
X65.637Y-111.823
X65.866Y-114.15
X66.835Y-121.587
X67.681Y-123.534
X67.786Y-125.816
X68.101Y-71.139
X68.619Y-124.734
X69.028Y-80.498
X70.266Y-88.646
X70.746Y-76.318
X71.146Y-80.601
X72.616Y-87.732
X73.322Y-130.645
X74.089Y-83.157
X74.089Y-87.348
X74.521Y-126.922
X74.535Y-70.863
X74.65Y-81.664
X74.655Y-79.743
X74.846Y-46.657
X74.921Y-111.209
X75.042Y-110.102
X75.168Y-74.995
X75.193Y-126.245
X75.263Y-100.097
X75.284Y-94.514
X75.543Y-80.198
X75.802Y-76.509
X76.047Y-68.451
X76.056Y-99.492
X76.164Y-77.864
X76.546Y-70.379
X76.571Y-60.646
X76.618Y-117.326
X77.022Y-124.73
X77.032Y-125.792
X77.035Y-88.698
X77.235Y-109.643
X77.302Y-84.998
X78.009Y-87.909
X78.202Y-118.253
X78.22Y-109.133
X78.576Y-61.337
X78.672Y-76.636
X78.803Y-54.479
X78.926Y-82.16
X79.062Y-72.639
X79.092Y-46.158
X79.092Y-48.353
X79.253Y-59.879
X80.11Y-62.474
X80.221Y-57.901
X80.267Y-125.129
X80.267Y-130.645
X80.38Y-44.412
X80.862Y-91.264
X80.972Y-54.835
X81.275Y-97.087
X81.594Y-57.775
X81.739Y-46.841
X81.911Y-62.268
X82.054Y-92.108
X82.054Y-98.352
X82.157Y-84.763
X82.266Y-40.317
X82.39Y-45.428
X82.581Y-57.743
X82.82Y-36.894
X82.847Y-67.639
X83.108Y-52.922
X83.217Y-43.336
X83.224Y-51.544
X83.239Y-60.8
X83.447Y-94.724
X83.739Y-88.029
X83.86Y-68.405
X83.93Y-89.177
X83.935Y-58.286
X84.12Y-48.432
X84.303Y-46.263
X84.593Y-54.878
X84.819Y-53.792
X84.893Y-90.194
X85.323Y-88.361
X85.457Y-50.274
X85.737Y-91.288
X85.791Y-51.971
X86.002Y-85.051
X86.195Y-50.88
X86.342Y-81.637
X86.347Y-60.8
X86.909Y-74.268
X87.045Y-89.888
X87.091Y-91.342
X87.094Y-42.06
X87.403Y-71.76
X87.86Y-39.927
X87.956Y-54.299
X88.064Y-45.462
X88.091Y-53.349
X88.196Y-127.243
X88.228Y-69.561
X88.409Y-75.877
X88.431Y-73.493
X88.444Y-88.634
X88.64Y-100.452
X88.691Y-83.397
X88.905Y-66.658
X89.304Y-127.96
X89.317Y-68.754
X89.441Y-107.576
X89.57Y-51.198
X89.576Y-101.667
X89.66Y-108.931
X89.915Y-47.823
X89.985Y-49.338
X90.062Y-90.468
X90.062Y-95.853
X90.095Y-70.702
X90.213Y-41.805
X90.227Y-46.163
X90.311Y-85.029
X91.03Y-76.563
X91.217Y-72.85
X91.223Y-119.944
X91.438Y-88.047
X91.638Y-79.008
X91.821Y-90.503
X91.962Y-61.044
X92.013Y-125.129
X92.251Y-97.269
X92.276Y-105.569
X92.309Y-126.95
X92.328Y-81.574
X92.328Y-85.052
X92.483Y-72.759
X92.492Y-42.991
X92.631Y-79.129
X92.755Y-51.204
X92.829Y-92.827
X93.071Y-101.218
X93.167Y-54.819
X93.233Y-65.639
X93.308Y-77.126
X93.751Y-48.288
X94.147Y-36.852
X94.314Y-77.803
X94.425Y-88.766
X94.467Y-95.858
X94.807Y-44.491
X94.864Y-52.285
X94.923Y-89.967
X94.995Y-79.563
X95.046Y-61.741
X95.29Y-101.895
X95.34Y-80.513
X95.341Y-76.554
X95.414Y-92.354
X95.521Y-60.791
X95.867Y-66.658
X96.002Y-62.323
X96.195Y-40.163
X96.253Y-64.74
X96.327Y-67.739
X96.489Y-97.995
X96.614Y-54.488
X96.761Y-78.781
X96.846Y-73.134
X96.952Y-62.229
X96.983Y-59.962
X97.067Y-84.565
X97.229Y-91.428
X97.47Y-81.187
X97.562Y-79.732
X97.819Y-76.716
X98.131Y-64.419
X98.197Y-80.47
X98.435Y-49.164
X98.502Y-73.418
X98.513Y-59.367
X98.55Y-54.291
X98.816Y-70.256
X98.816Y-71.61
X98.904Y-121.704
X99.29Y-74.175
X99.385Y-48.78
X99.428Y-50.538
X99.455Y-105.323
X99.5Y-78.485
X99.545Y-85.007
X99.716Y-96.16
X99.885Y-43.815
X99.938Y-65.265
X100.109Y-82.685
X100.152Y-72.759
X100.204Y-63.875
X100.472Y-62.057
X100.54Y-52.506
X100.858Y-81.902
X100.879Y-43.815
X100.888Y-65.376
X100.916Y-69.963
X100.997Y-64.426
X101.045Y-46.347
X101.097Y-73.639
X101.104Y-35.114
X101.65Y-106.017
X101.765Y-119.783
X101.829Y-43.564
X101.923Y-50.444
X102.32Y-52.314
X102.455Y-124.098
X102.507Y-40.885
X102.744Y-57.338
X102.752Y-55.156
X103.169Y-37.255
X103.254Y-120.638
X103.385Y-104.914
X103.547Y-57.925
X103.775Y-87.323
X104.191Y-71.423
X104.539Y-50.928
X104.539Y-52.496
X104.628Y-58.686
X104.739Y-48.953
X104.786Y-61.36
X104.921Y-96.661
X105.157Y-79.956
X105.157Y-105.558
X105.512Y-81.528
X105.526Y-64.139
X105.556Y-66.416
X105.599Y-63.178
X105.852Y-76.445
X105.986Y-102.734
X106.096Y-105.106
X106.169Y-118.428
X106.608Y-54.76
X106.663Y-75.647
X106.674Y-45.554
X106.983Y-80.237
X107.017Y-51.461
X107.03Y-117.914
X107.046Y-105.075
X107.169Y-119.406
X107.177Y-53.304
X107.223Y-77.123
X107.236Y-71.793
X107.41Y-43.043
X107.646Y-47.451
X107.652Y-45.575
X107.705Y-63.11
X107.779Y-96.917
X107.901Y-104.014
X107.931Y-124.56
X108.11Y-59.566
X108.312Y-43.986
X108.99Y-86.178
X109.09Y-49.771
X109.465Y-59.74
X109.667Y-43.196
X109.79Y-48.871
X109.899Y-111.239
X109.899Y-115.607
X110.174Y-120.792
X110.215Y-108.71
X110.435Y-87.518
X110.445Y-43.817
X110.512Y-41.554
X110.522Y-81.067
X110.578Y-112.838
X111.118Y-56.661
X111.517Y-99.387
X111.867Y-41.468
X111.874Y-128.006
X112.201Y-104.274
X112.351Y-132.101
X112.634Y-90.092
X112.649Y-105.749
X112.815Y-82.042
X112.816Y-60.553
X112.862Y-40.194
X112.867Y-59.157
X112.904Y-64.93
X113.069Y-99.783
X113.391Y-105.148
X113.597Y-54.248
X113.677Y-59.876
X113.928Y-41.295
X114.094Y-95.975
X114.231Y-118.974
X114.321Y-107.093
X114.327Y-112.289
X114.472Y-66.011
X114.724Y-79.365
X114.725Y-88.462
X114.784Y-55.908
X114.97Y-124.072
X115.256Y-50.13
X115.369Y-108.838
X115.697Y-123.345
X115.776Y-95.452
X115.821Y-47.779
X116.0Y-53.092
X116.0Y-56.607
X116.085Y-104.379
X116.597Y-95.975
X116.949Y-127.036
X117.086Y-41.285
X117.11Y-103.913
X117.141Y-68.964
X117.188Y-98.935
X117.27Y-82.446
X117.31Y-112.978
X117.342Y-110.17
X117.741Y-70.289
X118.054Y-102.942
X118.054Y-107.499
X118.15Y-112.289
X118.15Y-120.32
X118.434Y-76.396
X118.434Y-82.895
X118.63Y-50.979
X118.698Y-54.179
X118.723Y-52.058
X119.118Y-75.599
X119.171Y-112.376
X119.219Y-65.757
X119.412Y-70.57
X119.43Y-101.153
X119.461Y-77.135
X119.461Y-80.748
X119.919Y-108.104
X120.626Y-39.244
X120.644Y-77.377
X120.743Y-103.751
X120.744Y-115.157
X120.896Y-96.379
X121.053Y-46.518
X121.45Y-99.033
X121.503Y-76.178
X121.624Y-49.311
X121.67Y-48.348
X121.968Y-90.124
X122.463Y-117.447
X122.463Y-118.801
X122.508Y-116.474
X122.526Y-41.644
X122.632Y-113.631
X123.031Y-104.563
X123.142Y-49.373
X123.281Y-40.059
X123.332Y-94.786
X123.343Y-107.281
X123.705Y-66.516
X123.783Y-76.427
X123.819Y-46.979
X124.008Y-42.492
X124.12Y-67.445
X124.159Y-78.559
X124.168Y-79.509
X124.202Y-49.049
X124.86Y-95.919
X125.524Y-95.147
X125.639Y-75.764
X125.967Y-74.814
X126.122Y-96.054
X126.323Y-119.329
X126.671Y-54.179
X126.693Y-74.196
X127.107Y-96.033
X127.3Y-82.353
X127.379Y-72.83
X127.566Y-34.721
X127.68Y-50.979
X128.003Y-80.09
X128.518Y-121.432
X128.62Y-67.899
X128.761Y-71.448
X128.862Y-95.341
X129.065Y-89.865
X129.104Y-113.151
X129.113Y-36.987
X129.284Y-102.183
X129.488Y-83.836
X130.077Y-49.549
X130.192Y-48.579
X130.26Y-53.702
X130.554Y-118.474
X130.655Y-42.793
X130.695Y-105.343
X130.724Y-95.341
X130.964Y-117.12
X131.153Y-57.126
X131.601Y-99.947
X131.638Y-87.565
X131.715Y-82.252
X132.012Y-75.195
X132.288Y-117.181
X132.451Y-44.36
X133.049Y-58.12
X133.165Y-82.957
X133.238Y-98.151
X133.288Y-126.874
X133.482Y-114.419
X133.555Y-46.828
X133.685Y-117.724
X134.109Y-98.637
X134.196Y-128.675
X134.393Y-109.25
X134.441Y-121.767
X134.851Y-114.043
X135.196Y-115.423
X135.441Y-104.351
X135.561Y-117.418
X135.672Y-106.563
X135.672Y-109.639
X136.977Y-48.449
X137.04Y-94.531
X137.04Y-98.595
X137.172Y-123.15
X137.347Y-104.252
X137.732Y-77.139
X137.927Y-113.014
X137.977Y-49.14
X139.109Y-123.504
X139.132Y-122.469
X139.509Y-105.024
X139.646Y-111.795
X139.978Y-103.983
X140.217Y-98.783
X140.51Y-84.631
X140.623Y-111.518
X140.632Y-48.449
X140.673Y-56.058
X140.84Y-129.527
X141.516Y-108.153
X141.516Y-110.494
X141.769Y-123.48
X142.091Y-98.303
X142.315Y-96.498
X142.531Y-111.791
X142.697Y-71.952
X143.074Y-78.749
X143.208Y-105.611
X143.271Y-64.655
X143.498Y-75.283
X143.508Y-106.641
X143.875Y-59.357
X143.879Y-56.805
X144.193Y-121.498
X144.712Y-74.549
X144.941Y-118.75
X145.329Y-123.689
X145.439Y-57.794
X145.738Y-116.136
X146.066Y-115.17
X146.601Y-106.221
X146.601Y-112.579
X146.774Y-121.574
X147.109Y-116.065
X147.121Y-103.148
X150.502Y-116.065
T2
X136.346Y-55.471
X136.346Y-58.011
X136.346Y-60.551
X136.346Y-63.091
X136.346Y-65.631
X136.346Y-68.171
X136.346Y-70.711
X136.346Y-73.251
X136.346Y-75.791
X136.346Y-78.331
X136.346Y-80.871
X136.346Y-83.411
X136.346Y-85.951
X136.346Y-88.491
X136.346Y-91.031
X138.886Y-55.471
X138.886Y-58.011
X138.886Y-60.551
X138.886Y-63.091
X138.886Y-65.631
X138.886Y-68.171
X138.886Y-70.711
X138.886Y-73.251
X138.886Y-75.791
X138.886Y-78.331
X138.886Y-80.871
X138.886Y-83.411
X138.886Y-85.951
X138.886Y-88.491
X138.886Y-91.031
T3
X82.791Y-122.631
X82.791Y-128.131
T4
X82.791Y-119.931
T5
X79.791Y-121.131
X85.791Y-122.131
T0
M30
