%TF.GenerationSoftware,KiCad,Pcbnew,(6.0.8)*%
%TF.CreationDate,2022-12-02T10:37:13+07:00*%
%TF.ProjectId,espot_mainboard,6573706f-745f-46d6-9169-6e626f617264,rev?*%
%TF.SameCoordinates,Original*%
%TF.FileFunction,Drillmap*%
%TF.FilePolarity,Positive*%
%FSLAX45Y45*%
G04 Gerber Fmt 4.5, Leading zero omitted, Abs format (unit mm)*
G04 Created by KiCad (PCBNEW (6.0.8)) date 2022-12-02 10:37:13*
%MOMM*%
%LPD*%
G01*
G04 APERTURE LIST*
%ADD10C,0.100000*%
%ADD11C,0.200000*%
%ADD12C,0.060000*%
%ADD13C,0.160000*%
%ADD14C,0.170000*%
%ADD15C,0.215000*%
G04 APERTURE END LIST*
D10*
X5109053Y-3359940D02*
X15109053Y-3359940D01*
X15109053Y-3359940D02*
X15109053Y-13359940D01*
X15109053Y-13359940D02*
X5109053Y-13359940D01*
X5109053Y-13359940D02*
X5109053Y-3359940D01*
D11*
D12*
X5489580Y-7883860D02*
X5549580Y-7943860D01*
X5549580Y-7883860D02*
X5489580Y-7943860D01*
X5525030Y-8716890D02*
X5585030Y-8776890D01*
X5585030Y-8716890D02*
X5525030Y-8776890D01*
X5578270Y-7638920D02*
X5638270Y-7698920D01*
X5638270Y-7638920D02*
X5578270Y-7698920D01*
X5636873Y-12520306D02*
X5696873Y-12580306D01*
X5696873Y-12520306D02*
X5636873Y-12580306D01*
X5646500Y-7433860D02*
X5706500Y-7493860D01*
X5706500Y-7433860D02*
X5646500Y-7493860D01*
X5768020Y-11715510D02*
X5828020Y-11775510D01*
X5828020Y-11715510D02*
X5768020Y-11775510D01*
X5796390Y-7921700D02*
X5856390Y-7981700D01*
X5856390Y-7921700D02*
X5796390Y-7981700D01*
X5797030Y-11455750D02*
X5857030Y-11515750D01*
X5857030Y-11455750D02*
X5797030Y-11515750D01*
X6095680Y-5658540D02*
X6155680Y-5718540D01*
X6155680Y-5658540D02*
X6095680Y-5718540D01*
X6104750Y-11513320D02*
X6164750Y-11573320D01*
X6164750Y-11513320D02*
X6104750Y-11573320D01*
X6141040Y-8242140D02*
X6201040Y-8302140D01*
X6201040Y-8242140D02*
X6141040Y-8302140D01*
X6177279Y-13202455D02*
X6237279Y-13262455D01*
X6237279Y-13202455D02*
X6177279Y-13262455D01*
X6196110Y-12277150D02*
X6256110Y-12337150D01*
X6256110Y-12277150D02*
X6196110Y-12337150D01*
X6215890Y-12075550D02*
X6275890Y-12135550D01*
X6275890Y-12075550D02*
X6215890Y-12135550D01*
X6259500Y-4805600D02*
X6319500Y-4865600D01*
X6319500Y-4805600D02*
X6259500Y-4865600D01*
X6259500Y-7928110D02*
X6319500Y-7988110D01*
X6319500Y-7928110D02*
X6259500Y-7988110D01*
X6292320Y-8107420D02*
X6352320Y-8167420D01*
X6352320Y-8107420D02*
X6292320Y-8167420D01*
X6306470Y-4709880D02*
X6366470Y-4769880D01*
X6366470Y-4709880D02*
X6306470Y-4769880D01*
X6329220Y-11108480D02*
X6389220Y-11168480D01*
X6389220Y-11108480D02*
X6329220Y-11168480D01*
X6368810Y-8587390D02*
X6428810Y-8647390D01*
X6428810Y-8587390D02*
X6368810Y-8647390D01*
X6371260Y-11457050D02*
X6431260Y-11517050D01*
X6431260Y-11457050D02*
X6371260Y-11517050D01*
X6443050Y-12473940D02*
X6503050Y-12533940D01*
X6503050Y-12473940D02*
X6443050Y-12533940D01*
X6533660Y-11152290D02*
X6593660Y-11212290D01*
X6593660Y-11152290D02*
X6533660Y-11212290D01*
X6556580Y-11385020D02*
X6616580Y-11445020D01*
X6616580Y-11385020D02*
X6556580Y-11445020D01*
X6653460Y-12128690D02*
X6713460Y-12188690D01*
X6713460Y-12128690D02*
X6653460Y-12188690D01*
X6738080Y-12323360D02*
X6798080Y-12383360D01*
X6798080Y-12323360D02*
X6738080Y-12383360D01*
X6748600Y-12551620D02*
X6808600Y-12611620D01*
X6808600Y-12551620D02*
X6748600Y-12611620D01*
X6780110Y-7083860D02*
X6840110Y-7143860D01*
X6840110Y-7083860D02*
X6780110Y-7143860D01*
X6831870Y-12443360D02*
X6891870Y-12503360D01*
X6891870Y-12443360D02*
X6831870Y-12503360D01*
X6872800Y-8019790D02*
X6932800Y-8079790D01*
X6932800Y-8019790D02*
X6872800Y-8079790D01*
X6996610Y-8834590D02*
X7056610Y-8894590D01*
X7056610Y-8834590D02*
X6996610Y-8894590D01*
X7044580Y-7601840D02*
X7104580Y-7661840D01*
X7104580Y-7601840D02*
X7044580Y-7661840D01*
X7084560Y-8030060D02*
X7144560Y-8090060D01*
X7144560Y-8030060D02*
X7084560Y-8090060D01*
X7231610Y-8743180D02*
X7291610Y-8803180D01*
X7291610Y-8743180D02*
X7231610Y-8803180D01*
X7302220Y-13034500D02*
X7362220Y-13094500D01*
X7362220Y-13034500D02*
X7302220Y-13094500D01*
X7378930Y-8285730D02*
X7438930Y-8345730D01*
X7438930Y-8285730D02*
X7378930Y-8345730D01*
X7378930Y-8704830D02*
X7438930Y-8764830D01*
X7438930Y-8704830D02*
X7378930Y-8764830D01*
X7422080Y-12662190D02*
X7482080Y-12722190D01*
X7482080Y-12662190D02*
X7422080Y-12722190D01*
X7423540Y-7056300D02*
X7483540Y-7116300D01*
X7483540Y-7056300D02*
X7423540Y-7116300D01*
X7434950Y-8136380D02*
X7494950Y-8196380D01*
X7494950Y-8136380D02*
X7434950Y-8196380D01*
X7435500Y-7944310D02*
X7495500Y-8004310D01*
X7495500Y-7944310D02*
X7435500Y-8004310D01*
X7454620Y-4635680D02*
X7514620Y-4695680D01*
X7514620Y-4635680D02*
X7454620Y-4695680D01*
X7462100Y-11090860D02*
X7522100Y-11150860D01*
X7522100Y-11090860D02*
X7462100Y-11150860D01*
X7474220Y-10980170D02*
X7534220Y-11040170D01*
X7534220Y-10980170D02*
X7474220Y-11040170D01*
X7486800Y-7469520D02*
X7546800Y-7529520D01*
X7546800Y-7469520D02*
X7486800Y-7529520D01*
X7489260Y-12594480D02*
X7549260Y-12654480D01*
X7549260Y-12594480D02*
X7489260Y-12654480D01*
X7496250Y-9979750D02*
X7556250Y-10039750D01*
X7556250Y-9979750D02*
X7496250Y-10039750D01*
X7498380Y-9421440D02*
X7558380Y-9481440D01*
X7558380Y-9421440D02*
X7498380Y-9481440D01*
X7524340Y-7989840D02*
X7584340Y-8049840D01*
X7584340Y-7989840D02*
X7524340Y-8049840D01*
X7550160Y-7620920D02*
X7610160Y-7680920D01*
X7610160Y-7620920D02*
X7550160Y-7680920D01*
X7574730Y-6815110D02*
X7634730Y-6875110D01*
X7634730Y-6815110D02*
X7574730Y-6875110D01*
X7575640Y-9919220D02*
X7635640Y-9979220D01*
X7635640Y-9919220D02*
X7575640Y-9979220D01*
X7586380Y-7756350D02*
X7646380Y-7816350D01*
X7646380Y-7756350D02*
X7586380Y-7816350D01*
X7624590Y-7007870D02*
X7684590Y-7067870D01*
X7684590Y-7007870D02*
X7624590Y-7067870D01*
X7627110Y-6034620D02*
X7687110Y-6094620D01*
X7687110Y-6034620D02*
X7627110Y-6094620D01*
X7631840Y-11702600D02*
X7691840Y-11762600D01*
X7691840Y-11702600D02*
X7631840Y-11762600D01*
X7672160Y-12443050D02*
X7732160Y-12503050D01*
X7732160Y-12443050D02*
X7672160Y-12503050D01*
X7673160Y-12549170D02*
X7733160Y-12609170D01*
X7733160Y-12549170D02*
X7673160Y-12609170D01*
X7673510Y-8839780D02*
X7733510Y-8899780D01*
X7733510Y-8839780D02*
X7673510Y-8899780D01*
X7693480Y-10934350D02*
X7753480Y-10994350D01*
X7753480Y-10934350D02*
X7693480Y-10994350D01*
X7700250Y-8469840D02*
X7760250Y-8529840D01*
X7760250Y-8469840D02*
X7700250Y-8529840D01*
X7770910Y-8760940D02*
X7830910Y-8820940D01*
X7830910Y-8760940D02*
X7770910Y-8820940D01*
X7790230Y-11795350D02*
X7850230Y-11855350D01*
X7850230Y-11795350D02*
X7790230Y-11855350D01*
X7791980Y-10883300D02*
X7851980Y-10943300D01*
X7851980Y-10883300D02*
X7791980Y-10943300D01*
X7827610Y-6103720D02*
X7887610Y-6163720D01*
X7887610Y-6103720D02*
X7827610Y-6163720D01*
X7837230Y-7633630D02*
X7897230Y-7693630D01*
X7897230Y-7633630D02*
X7837230Y-7693630D01*
X7850290Y-5417860D02*
X7910290Y-5477860D01*
X7910290Y-5417860D02*
X7850290Y-5477860D01*
X7862590Y-8186020D02*
X7922590Y-8246020D01*
X7922590Y-8186020D02*
X7862590Y-8246020D01*
X7876170Y-7233860D02*
X7936170Y-7293860D01*
X7936170Y-7233860D02*
X7876170Y-7293860D01*
X7879190Y-4585790D02*
X7939190Y-4645790D01*
X7939190Y-4585790D02*
X7879190Y-4645790D01*
X7879190Y-4805280D02*
X7939190Y-4865280D01*
X7939190Y-4805280D02*
X7879190Y-4865280D01*
X7895320Y-5957920D02*
X7955320Y-6017920D01*
X7955320Y-5957920D02*
X7895320Y-6017920D01*
X7981010Y-6217440D02*
X8041010Y-6277440D01*
X8041010Y-6217440D02*
X7981010Y-6277440D01*
X7992110Y-5760100D02*
X8052110Y-5820100D01*
X8052110Y-5760100D02*
X7992110Y-5820100D01*
X7996660Y-12482920D02*
X8056660Y-12542920D01*
X8056660Y-12482920D02*
X7996660Y-12542920D01*
X7996660Y-13034500D02*
X8056660Y-13094500D01*
X8056660Y-13034500D02*
X7996660Y-13094500D01*
X8007990Y-4411240D02*
X8067990Y-4471240D01*
X8067990Y-4411240D02*
X8007990Y-4471240D01*
X8056220Y-9096390D02*
X8116220Y-9156390D01*
X8116220Y-9096390D02*
X8056220Y-9156390D01*
X8067180Y-5453470D02*
X8127180Y-5513470D01*
X8127180Y-5453470D02*
X8067180Y-5513470D01*
X8097450Y-9678690D02*
X8157450Y-9738690D01*
X8157450Y-9678690D02*
X8097450Y-9738690D01*
X8129360Y-5747490D02*
X8189360Y-5807490D01*
X8189360Y-5747490D02*
X8129360Y-5807490D01*
X8143910Y-4654080D02*
X8203910Y-4714080D01*
X8203910Y-4654080D02*
X8143910Y-4714080D01*
X8161080Y-6196800D02*
X8221080Y-6256800D01*
X8221080Y-6196800D02*
X8161080Y-6256800D01*
X8175410Y-9180830D02*
X8235410Y-9240830D01*
X8235410Y-9180830D02*
X8175410Y-9240830D01*
X8175410Y-9805170D02*
X8235410Y-9865170D01*
X8235410Y-9805170D02*
X8175410Y-9865170D01*
X8185740Y-8446280D02*
X8245740Y-8506280D01*
X8245740Y-8446280D02*
X8185740Y-8506280D01*
X8196560Y-4001750D02*
X8256560Y-4061750D01*
X8256560Y-4001750D02*
X8196560Y-4061750D01*
X8209000Y-4512840D02*
X8269000Y-4572840D01*
X8269000Y-4512840D02*
X8209000Y-4572840D01*
X8228060Y-5744280D02*
X8288060Y-5804280D01*
X8288060Y-5744280D02*
X8228060Y-5804280D01*
X8252030Y-3659410D02*
X8312030Y-3719410D01*
X8312030Y-3659410D02*
X8252030Y-3719410D01*
X8254720Y-6733860D02*
X8314720Y-6793860D01*
X8314720Y-6733860D02*
X8254720Y-6793860D01*
X8280790Y-5262180D02*
X8340790Y-5322180D01*
X8340790Y-5262180D02*
X8280790Y-5322180D01*
X8291710Y-4303600D02*
X8351710Y-4363600D01*
X8351710Y-4303600D02*
X8291710Y-4363600D01*
X8292440Y-5124390D02*
X8352440Y-5184390D01*
X8352440Y-5124390D02*
X8292440Y-5184390D01*
X8293910Y-6049980D02*
X8353910Y-6109980D01*
X8353910Y-6049980D02*
X8293910Y-6109980D01*
X8314730Y-9442370D02*
X8374730Y-9502370D01*
X8374730Y-9442370D02*
X8314730Y-9502370D01*
X8343950Y-8772870D02*
X8403950Y-8832870D01*
X8403950Y-8772870D02*
X8343950Y-8832870D01*
X8356040Y-6810490D02*
X8416040Y-6870490D01*
X8416040Y-6810490D02*
X8356040Y-6870490D01*
X8363040Y-8887720D02*
X8423040Y-8947720D01*
X8423040Y-8887720D02*
X8363040Y-8947720D01*
X8363490Y-5798610D02*
X8423490Y-5858610D01*
X8423490Y-5798610D02*
X8363490Y-5858610D01*
X8382000Y-4813220D02*
X8442000Y-4873220D01*
X8442000Y-4813220D02*
X8382000Y-4873220D01*
X8400350Y-4596320D02*
X8460350Y-4656320D01*
X8460350Y-4596320D02*
X8400350Y-4656320D01*
X8429310Y-5457850D02*
X8489310Y-5517850D01*
X8489310Y-5457850D02*
X8429310Y-5517850D01*
X8451940Y-5349220D02*
X8511940Y-5409220D01*
X8511940Y-5349220D02*
X8451940Y-5409220D01*
X8459330Y-8989360D02*
X8519330Y-9049360D01*
X8519330Y-8989360D02*
X8459330Y-9049360D01*
X8502340Y-8806130D02*
X8562340Y-8866130D01*
X8562340Y-8806130D02*
X8502340Y-8866130D01*
X8515740Y-4997400D02*
X8575740Y-5057400D01*
X8575740Y-4997400D02*
X8515740Y-5057400D01*
X8543720Y-9098790D02*
X8603720Y-9158790D01*
X8603720Y-9098790D02*
X8543720Y-9158790D01*
X8549100Y-5167080D02*
X8609100Y-5227080D01*
X8609100Y-5167080D02*
X8549100Y-5227080D01*
X8570220Y-8475120D02*
X8630220Y-8535120D01*
X8630220Y-8475120D02*
X8570220Y-8535120D01*
X8589510Y-5058000D02*
X8649510Y-5118000D01*
X8649510Y-5058000D02*
X8589510Y-5118000D01*
X8604240Y-8133740D02*
X8664240Y-8193740D01*
X8664240Y-8133740D02*
X8604240Y-8193740D01*
X8604710Y-6049980D02*
X8664710Y-6109980D01*
X8664710Y-6049980D02*
X8604710Y-6109980D01*
X8660910Y-7396770D02*
X8720910Y-7456770D01*
X8720910Y-7396770D02*
X8660910Y-7456770D01*
X8674540Y-8958800D02*
X8734540Y-9018800D01*
X8734540Y-8958800D02*
X8674540Y-9018800D01*
X8679150Y-9104240D02*
X8739150Y-9164240D01*
X8739150Y-9104240D02*
X8679150Y-9164240D01*
X8679370Y-4175970D02*
X8739370Y-4235970D01*
X8739370Y-4175970D02*
X8679370Y-4235970D01*
X8710310Y-7146050D02*
X8770310Y-7206050D01*
X8770310Y-7146050D02*
X8710310Y-7206050D01*
X8755960Y-3962730D02*
X8815960Y-4022730D01*
X8815960Y-3962730D02*
X8755960Y-4022730D01*
X8765600Y-5399910D02*
X8825600Y-5459910D01*
X8825600Y-5399910D02*
X8765600Y-5459910D01*
X8776400Y-4516150D02*
X8836400Y-4576150D01*
X8836400Y-4516150D02*
X8776400Y-4576150D01*
X8779120Y-5304890D02*
X8839120Y-5364890D01*
X8839120Y-5304890D02*
X8779120Y-5364890D01*
X8789630Y-12694290D02*
X8849630Y-12754290D01*
X8849630Y-12694290D02*
X8789630Y-12754290D01*
X8792810Y-6926140D02*
X8852810Y-6986140D01*
X8852810Y-6926140D02*
X8792810Y-6986140D01*
X8810940Y-7557740D02*
X8870940Y-7617740D01*
X8870940Y-7557740D02*
X8810940Y-7617740D01*
X8813080Y-7319300D02*
X8873080Y-7379300D01*
X8873080Y-7319300D02*
X8813080Y-7379300D01*
X8814390Y-8833410D02*
X8874390Y-8893410D01*
X8874390Y-8833410D02*
X8814390Y-8893410D01*
X8833960Y-10015190D02*
X8893960Y-10075190D01*
X8893960Y-10015190D02*
X8833960Y-10075190D01*
X8839150Y-8309710D02*
X8899150Y-8369710D01*
X8899150Y-8309710D02*
X8839150Y-8369710D01*
X8860520Y-6635770D02*
X8920520Y-6695770D01*
X8920520Y-6635770D02*
X8860520Y-6695770D01*
X8900390Y-12766050D02*
X8960390Y-12826050D01*
X8960390Y-12766050D02*
X8900390Y-12826050D01*
X8901700Y-6845420D02*
X8961700Y-6905420D01*
X8961700Y-6845420D02*
X8901700Y-6905420D01*
X8914140Y-10727630D02*
X8974140Y-10787630D01*
X8974140Y-10727630D02*
X8914140Y-10787630D01*
X8926990Y-5089790D02*
X8986990Y-5149790D01*
X8986990Y-5089790D02*
X8926990Y-5149790D01*
X8927630Y-10136740D02*
X8987630Y-10196740D01*
X8987630Y-10136740D02*
X8927630Y-10196740D01*
X8936000Y-10863060D02*
X8996000Y-10923060D01*
X8996000Y-10863060D02*
X8936000Y-10923060D01*
X8961530Y-4752290D02*
X9021530Y-4812290D01*
X9021530Y-4752290D02*
X8961530Y-4812290D01*
X8968540Y-4903770D02*
X9028540Y-4963770D01*
X9028540Y-4903770D02*
X8968540Y-4963770D01*
X8976220Y-9016780D02*
X9036220Y-9076780D01*
X9036220Y-9016780D02*
X8976220Y-9076780D01*
X8976220Y-9555260D02*
X9036220Y-9615260D01*
X9036220Y-9555260D02*
X8976220Y-9615260D01*
X8979460Y-7040230D02*
X9039460Y-7100230D01*
X9039460Y-7040230D02*
X8979460Y-7100230D01*
X8991260Y-4150510D02*
X9051260Y-4210510D01*
X9051260Y-4150510D02*
X8991260Y-4210510D01*
X8992660Y-4586330D02*
X9052660Y-4646330D01*
X9052660Y-4586330D02*
X8992660Y-4646330D01*
X9001130Y-8472910D02*
X9061130Y-8532910D01*
X9061130Y-8472910D02*
X9001130Y-8532910D01*
X9072960Y-7626330D02*
X9132960Y-7686330D01*
X9132960Y-7626330D02*
X9072960Y-7686330D01*
X9091710Y-7255010D02*
X9151710Y-7315010D01*
X9151710Y-7255010D02*
X9091710Y-7315010D01*
X9092300Y-11964370D02*
X9152300Y-12024370D01*
X9152300Y-11964370D02*
X9092300Y-12024370D01*
X9113840Y-8774660D02*
X9173840Y-8834660D01*
X9173840Y-8774660D02*
X9113840Y-8834660D01*
X9133820Y-7870770D02*
X9193820Y-7930770D01*
X9193820Y-7870770D02*
X9133820Y-7930770D01*
X9152060Y-9020330D02*
X9212060Y-9080330D01*
X9212060Y-9020330D02*
X9152060Y-9080330D01*
X9166190Y-6074430D02*
X9226190Y-6134430D01*
X9226190Y-6074430D02*
X9166190Y-6134430D01*
X9171330Y-12482920D02*
X9231330Y-12542920D01*
X9231330Y-12482920D02*
X9171330Y-12542920D01*
X9195090Y-9696950D02*
X9255090Y-9756950D01*
X9255090Y-9696950D02*
X9195090Y-9756950D01*
X9197590Y-10526890D02*
X9257590Y-10586890D01*
X9257590Y-10526890D02*
X9197590Y-10586890D01*
X9200860Y-12665000D02*
X9260860Y-12725000D01*
X9260860Y-12665000D02*
X9200860Y-12725000D01*
X9202760Y-8127430D02*
X9262760Y-8187430D01*
X9262760Y-8127430D02*
X9202760Y-8187430D01*
X9202760Y-8475180D02*
X9262760Y-8535180D01*
X9262760Y-8475180D02*
X9202760Y-8535180D01*
X9218280Y-7245900D02*
X9278280Y-7305900D01*
X9278280Y-7245900D02*
X9218280Y-7305900D01*
X9219240Y-4269060D02*
X9279240Y-4329060D01*
X9279240Y-4269060D02*
X9219240Y-4329060D01*
X9233070Y-7882880D02*
X9293070Y-7942880D01*
X9293070Y-7882880D02*
X9233070Y-7942880D01*
X9245550Y-5090360D02*
X9305550Y-5150360D01*
X9305550Y-5090360D02*
X9245550Y-5150360D01*
X9252930Y-9252720D02*
X9312930Y-9312720D01*
X9312930Y-9252720D02*
X9252930Y-9312720D01*
X9277070Y-10091780D02*
X9337070Y-10151780D01*
X9337070Y-10091780D02*
X9277070Y-10151780D01*
X9286720Y-5451930D02*
X9346720Y-5511930D01*
X9346720Y-5451930D02*
X9286720Y-5511930D01*
X9293250Y-6533860D02*
X9353250Y-6593860D01*
X9353250Y-6533860D02*
X9293250Y-6593860D01*
X9300790Y-7682630D02*
X9360790Y-7742630D01*
X9360790Y-7682630D02*
X9300790Y-7742630D01*
X9345150Y-4798800D02*
X9405150Y-4858800D01*
X9405150Y-4798800D02*
X9345150Y-4858800D01*
X9384690Y-3655200D02*
X9444690Y-3715200D01*
X9444690Y-3655200D02*
X9384690Y-3715200D01*
X9401380Y-7750340D02*
X9461380Y-7810340D01*
X9461380Y-7750340D02*
X9401380Y-7810340D01*
X9412550Y-8846580D02*
X9472550Y-8906580D01*
X9472550Y-8846580D02*
X9412550Y-8906580D01*
X9416670Y-9555750D02*
X9476670Y-9615750D01*
X9476670Y-9555750D02*
X9416670Y-9615750D01*
X9450710Y-4419140D02*
X9510710Y-4479140D01*
X9510710Y-4419140D02*
X9450710Y-4479140D01*
X9456360Y-5198490D02*
X9516360Y-5258490D01*
X9516360Y-5198490D02*
X9456360Y-5258490D01*
X9462290Y-8966710D02*
X9522290Y-9026710D01*
X9522290Y-8966710D02*
X9462290Y-9026710D01*
X9469490Y-7926290D02*
X9529490Y-7986290D01*
X9529490Y-7926290D02*
X9469490Y-7986290D01*
X9474590Y-6144080D02*
X9534590Y-6204080D01*
X9534590Y-6144080D02*
X9474590Y-6204080D01*
X9498990Y-10159490D02*
X9558990Y-10219490D01*
X9558990Y-10159490D02*
X9498990Y-10219490D01*
X9504020Y-8021300D02*
X9564020Y-8081300D01*
X9564020Y-8021300D02*
X9504020Y-8081300D01*
X9504100Y-7625450D02*
X9564100Y-7685450D01*
X9564100Y-7625450D02*
X9504100Y-7685450D01*
X9511420Y-9205360D02*
X9571420Y-9265360D01*
X9571420Y-9205360D02*
X9511420Y-9265360D01*
X9522130Y-6049060D02*
X9582130Y-6109060D01*
X9582130Y-6049060D02*
X9522130Y-6109060D01*
X9556690Y-6635770D02*
X9616690Y-6695770D01*
X9616690Y-6635770D02*
X9556690Y-6695770D01*
X9570200Y-6202320D02*
X9630200Y-6262320D01*
X9630200Y-6202320D02*
X9570200Y-6262320D01*
X9589480Y-3986290D02*
X9649480Y-4046290D01*
X9649480Y-3986290D02*
X9589480Y-4046290D01*
X9595340Y-6443970D02*
X9655340Y-6503970D01*
X9655340Y-6443970D02*
X9595340Y-6503970D01*
X9602680Y-6743900D02*
X9662680Y-6803900D01*
X9662680Y-6743900D02*
X9602680Y-6803900D01*
X9618940Y-9769500D02*
X9678940Y-9829500D01*
X9678940Y-9769500D02*
X9618940Y-9829500D01*
X9631420Y-5418810D02*
X9691420Y-5478810D01*
X9691420Y-5418810D02*
X9631420Y-5478810D01*
X9646140Y-7848090D02*
X9706140Y-7908090D01*
X9706140Y-7848090D02*
X9646140Y-7908090D01*
X9654560Y-7283440D02*
X9714560Y-7343440D01*
X9714560Y-7283440D02*
X9654560Y-7343440D01*
X9665220Y-6192950D02*
X9725220Y-6252950D01*
X9725220Y-6192950D02*
X9665220Y-6252950D01*
X9668350Y-5966220D02*
X9728350Y-6026220D01*
X9728350Y-5966220D02*
X9668350Y-6026220D01*
X9676660Y-8426480D02*
X9736660Y-8486480D01*
X9736660Y-8426480D02*
X9676660Y-8486480D01*
X9692860Y-9112830D02*
X9752860Y-9172830D01*
X9752860Y-9112830D02*
X9692860Y-9172830D01*
X9716970Y-8088710D02*
X9776970Y-8148710D01*
X9776970Y-8088710D02*
X9716970Y-8148710D01*
X9726220Y-7943200D02*
X9786220Y-8003200D01*
X9786220Y-7943200D02*
X9726220Y-8003200D01*
X9751890Y-7641580D02*
X9811890Y-7701580D01*
X9811890Y-7641580D02*
X9751890Y-7701580D01*
X9783120Y-6411880D02*
X9843120Y-6471880D01*
X9843120Y-6411880D02*
X9783120Y-6471880D01*
X9789690Y-8017040D02*
X9849690Y-8077040D01*
X9849690Y-8017040D02*
X9789690Y-8077040D01*
X9813530Y-4886450D02*
X9873530Y-4946450D01*
X9873530Y-4886450D02*
X9813530Y-4946450D01*
X9820220Y-7311830D02*
X9880220Y-7371830D01*
X9880220Y-7311830D02*
X9820220Y-7371830D01*
X9821280Y-5906740D02*
X9881280Y-5966740D01*
X9881280Y-5906740D02*
X9821280Y-5966740D01*
X9825040Y-5399080D02*
X9885040Y-5459080D01*
X9885040Y-5399080D02*
X9825040Y-5459080D01*
X9851590Y-6995590D02*
X9911590Y-7055590D01*
X9911590Y-6995590D02*
X9851590Y-7055590D01*
X9851590Y-7131020D02*
X9911590Y-7191020D01*
X9911590Y-7131020D02*
X9851590Y-7191020D01*
X9860450Y-12140430D02*
X9920450Y-12200430D01*
X9920450Y-12140430D02*
X9860450Y-12200430D01*
X9898990Y-7387480D02*
X9958990Y-7447480D01*
X9958990Y-7387480D02*
X9898990Y-7447480D01*
X9908550Y-4848010D02*
X9968550Y-4908010D01*
X9968550Y-4848010D02*
X9908550Y-4908010D01*
X9912760Y-5023850D02*
X9972760Y-5083850D01*
X9972760Y-5023850D02*
X9912760Y-5083850D01*
X9915510Y-10502260D02*
X9975510Y-10562260D01*
X9975510Y-10502260D02*
X9915510Y-10562260D01*
X9920040Y-7818500D02*
X9980040Y-7878500D01*
X9980040Y-7818500D02*
X9920040Y-7878500D01*
X9924460Y-8470670D02*
X9984460Y-8530670D01*
X9984460Y-8470670D02*
X9924460Y-8530670D01*
X9941640Y-9585980D02*
X10001640Y-9645980D01*
X10001640Y-9585980D02*
X9941640Y-9645980D01*
X9958470Y-4351520D02*
X10018470Y-4411520D01*
X10018470Y-4351520D02*
X9958470Y-4411520D01*
X9963780Y-6496530D02*
X10023780Y-6556530D01*
X10023780Y-6496530D02*
X9963780Y-6556530D01*
X9980930Y-8238520D02*
X10040930Y-8298520D01*
X10040930Y-8238520D02*
X9980930Y-8298520D01*
X9985160Y-7245900D02*
X10045160Y-7305900D01*
X10045160Y-7245900D02*
X9985160Y-7305900D01*
X9990380Y-6357520D02*
X10050380Y-6417520D01*
X10050380Y-6357520D02*
X9990380Y-6417520D01*
X10017210Y-6175730D02*
X10077210Y-6235730D01*
X10077210Y-6175730D02*
X10017210Y-6235730D01*
X10024030Y-5220650D02*
X10084030Y-5280650D01*
X10084030Y-5220650D02*
X10024030Y-5280650D01*
X10055840Y-8160230D02*
X10115840Y-8220230D01*
X10115840Y-8160230D02*
X10055840Y-8220230D01*
X10057880Y-4351520D02*
X10117880Y-4411520D01*
X10117880Y-4351520D02*
X10057880Y-4411520D01*
X10058800Y-6507580D02*
X10118800Y-6567580D01*
X10118800Y-6507580D02*
X10058800Y-6567580D01*
X10061560Y-6966300D02*
X10121560Y-7026300D01*
X10121560Y-6966300D02*
X10061560Y-7026300D01*
X10069720Y-6412560D02*
X10129720Y-6472560D01*
X10129720Y-6412560D02*
X10069720Y-6472560D01*
X10074550Y-4604660D02*
X10134550Y-4664660D01*
X10134550Y-4604660D02*
X10074550Y-4664660D01*
X10079750Y-7333860D02*
X10139750Y-7393860D01*
X10139750Y-7333860D02*
X10079750Y-7393860D01*
X10080400Y-3481400D02*
X10140400Y-3541400D01*
X10140400Y-3481400D02*
X10080400Y-3541400D01*
X10135020Y-10571690D02*
X10195020Y-10631690D01*
X10195020Y-10571690D02*
X10135020Y-10631690D01*
X10146510Y-11948350D02*
X10206510Y-12008350D01*
X10206510Y-11948350D02*
X10146510Y-12008350D01*
X10152900Y-4326420D02*
X10212900Y-4386420D01*
X10212900Y-4326420D02*
X10152900Y-4386420D01*
X10162260Y-5014430D02*
X10222260Y-5074430D01*
X10222260Y-5014430D02*
X10162260Y-5074430D01*
X10201960Y-5201410D02*
X10261960Y-5261410D01*
X10261960Y-5201410D02*
X10201960Y-5261410D01*
X10215470Y-12379830D02*
X10275470Y-12439830D01*
X10275470Y-12379830D02*
X10215470Y-12439830D01*
X10220700Y-4058520D02*
X10280700Y-4118520D01*
X10280700Y-4058520D02*
X10220700Y-4118520D01*
X10244370Y-5703850D02*
X10304370Y-5763850D01*
X10304370Y-5703850D02*
X10244370Y-5763850D01*
X10245170Y-5485590D02*
X10305170Y-5545590D01*
X10305170Y-5485590D02*
X10245170Y-5545590D01*
X10286950Y-3695520D02*
X10346950Y-3755520D01*
X10346950Y-3695520D02*
X10286950Y-3755520D01*
X10295450Y-12033790D02*
X10355450Y-12093790D01*
X10355450Y-12033790D02*
X10295450Y-12093790D01*
X10308470Y-10461410D02*
X10368470Y-10521410D01*
X10368470Y-10461410D02*
X10308470Y-10521410D01*
X10324660Y-5762530D02*
X10384660Y-5822530D01*
X10384660Y-5762530D02*
X10324660Y-5822530D01*
X10347520Y-8702350D02*
X10407520Y-8762350D01*
X10407520Y-8702350D02*
X10347520Y-8762350D01*
X10389070Y-7112320D02*
X10449070Y-7172320D01*
X10449070Y-7112320D02*
X10389070Y-7172320D01*
X10423930Y-5062780D02*
X10483930Y-5122780D01*
X10483930Y-5062780D02*
X10423930Y-5122780D01*
X10423930Y-5219590D02*
X10483930Y-5279590D01*
X10483930Y-5219590D02*
X10423930Y-5279590D01*
X10432810Y-5838580D02*
X10492810Y-5898580D01*
X10492810Y-5838580D02*
X10432810Y-5898580D01*
X10443850Y-4865330D02*
X10503850Y-4925330D01*
X10503850Y-4865330D02*
X10443850Y-4925330D01*
X10448620Y-6105990D02*
X10508620Y-6165990D01*
X10508620Y-6105990D02*
X10448620Y-6165990D01*
X10462120Y-9636150D02*
X10522120Y-9696150D01*
X10522120Y-9636150D02*
X10462120Y-9696150D01*
X10485680Y-7965610D02*
X10545680Y-8025610D01*
X10545680Y-7965610D02*
X10485680Y-8025610D01*
X10485690Y-10525800D02*
X10545690Y-10585800D01*
X10545690Y-10525800D02*
X10485690Y-10585800D01*
X10521210Y-8122800D02*
X10581210Y-8182800D01*
X10581210Y-8122800D02*
X10521210Y-8182800D01*
X10522570Y-6383860D02*
X10582570Y-6443860D01*
X10582570Y-6383860D02*
X10522570Y-6443860D01*
X10525630Y-6611620D02*
X10585630Y-6671620D01*
X10585630Y-6611620D02*
X10525630Y-6671620D01*
X10529880Y-6287850D02*
X10589880Y-6347850D01*
X10589880Y-6287850D02*
X10529880Y-6347850D01*
X10555240Y-7614470D02*
X10615240Y-7674470D01*
X10615240Y-7614470D02*
X10555240Y-7674470D01*
X10568590Y-10243400D02*
X10628590Y-10303400D01*
X10628590Y-10243400D02*
X10568590Y-10303400D01*
X10579620Y-10480640D02*
X10639620Y-10540640D01*
X10639620Y-10480640D02*
X10579620Y-10540640D01*
X10586870Y-11812830D02*
X10646870Y-11872830D01*
X10646870Y-11812830D02*
X10586870Y-11872830D01*
X10630840Y-5446020D02*
X10690840Y-5506020D01*
X10690840Y-5446020D02*
X10630840Y-5506020D01*
X10636290Y-7534710D02*
X10696290Y-7594710D01*
X10696290Y-7534710D02*
X10636290Y-7594710D01*
X10637370Y-4525430D02*
X10697370Y-4585430D01*
X10697370Y-4525430D02*
X10637370Y-4585430D01*
X10668270Y-7993660D02*
X10728270Y-8053660D01*
X10728270Y-7993660D02*
X10668270Y-8053660D01*
X10671730Y-5116080D02*
X10731730Y-5176080D01*
X10731730Y-5116080D02*
X10671730Y-5176080D01*
X10672960Y-11761390D02*
X10732960Y-11821390D01*
X10732960Y-11761390D02*
X10672960Y-11821390D01*
X10674640Y-10477480D02*
X10734640Y-10537480D01*
X10734640Y-10477480D02*
X10674640Y-10537480D01*
X10686950Y-11910580D02*
X10746950Y-11970580D01*
X10746950Y-11910580D02*
X10686950Y-11970580D01*
X10687660Y-5300410D02*
X10747660Y-5360410D01*
X10747660Y-5300410D02*
X10687660Y-5360410D01*
X10692310Y-7682280D02*
X10752310Y-7742280D01*
X10752310Y-7682280D02*
X10692310Y-7742280D01*
X10693590Y-7149340D02*
X10753590Y-7209340D01*
X10753590Y-7149340D02*
X10693590Y-7209340D01*
X10711030Y-4274280D02*
X10771030Y-4334280D01*
X10771030Y-4274280D02*
X10711030Y-4334280D01*
X10734640Y-4715130D02*
X10794640Y-4775130D01*
X10794640Y-4715130D02*
X10734640Y-4775130D01*
X10735240Y-4527540D02*
X10795240Y-4587540D01*
X10795240Y-4527540D02*
X10735240Y-4587540D01*
X10740470Y-6281020D02*
X10800470Y-6341020D01*
X10800470Y-6281020D02*
X10740470Y-6341020D01*
X10747900Y-9661720D02*
X10807900Y-9721720D01*
X10807900Y-9661720D02*
X10747900Y-9721720D01*
X10760120Y-10371430D02*
X10820120Y-10431430D01*
X10820120Y-10371430D02*
X10760120Y-10431430D01*
X10763090Y-12426020D02*
X10823090Y-12486020D01*
X10823090Y-12426020D02*
X10763090Y-12486020D01*
X10781020Y-5926580D02*
X10841020Y-5986580D01*
X10841020Y-5926580D02*
X10781020Y-5986580D01*
X10801210Y-4368560D02*
X10861210Y-4428560D01*
X10861210Y-4368560D02*
X10801210Y-4428560D01*
X10869010Y-8587760D02*
X10929010Y-8647760D01*
X10929010Y-8587760D02*
X10869010Y-8647760D01*
X10879020Y-4947140D02*
X10939020Y-5007140D01*
X10939020Y-4947140D02*
X10879020Y-5007140D01*
X10916450Y-5944050D02*
X10976450Y-6004050D01*
X10976450Y-5944050D02*
X10916450Y-6004050D01*
X10936720Y-4289560D02*
X10996720Y-4349560D01*
X10996720Y-4289560D02*
X10936720Y-4349560D01*
X10949020Y-4857120D02*
X11009020Y-4917120D01*
X11009020Y-4857120D02*
X10949020Y-4917120D01*
X10959880Y-11093850D02*
X11019880Y-11153850D01*
X11019880Y-11093850D02*
X10959880Y-11153850D01*
X10959880Y-11530680D02*
X11019880Y-11590680D01*
X11019880Y-11530680D02*
X10959880Y-11590680D01*
X10987420Y-12049250D02*
X11047420Y-12109250D01*
X11047420Y-12049250D02*
X10987420Y-12109250D01*
X10991540Y-10841020D02*
X11051540Y-10901020D01*
X11051540Y-10841020D02*
X10991540Y-10901020D01*
X11013510Y-8721840D02*
X11073510Y-8781840D01*
X11073510Y-8721840D02*
X11013510Y-8781840D01*
X11014540Y-4351700D02*
X11074540Y-4411700D01*
X11074540Y-4351700D02*
X11014540Y-4411700D01*
X11021240Y-4125400D02*
X11081240Y-4185400D01*
X11081240Y-4125400D02*
X11021240Y-4185400D01*
X11022230Y-8076660D02*
X11082230Y-8136660D01*
X11082230Y-8076660D02*
X11022230Y-8136660D01*
X11027810Y-11253850D02*
X11087810Y-11313850D01*
X11087810Y-11253850D02*
X11027810Y-11313850D01*
X11081800Y-5636140D02*
X11141800Y-5696140D01*
X11141800Y-5636140D02*
X11081800Y-5696140D01*
X11121700Y-9908750D02*
X11181700Y-9968750D01*
X11181700Y-9908750D02*
X11121700Y-9968750D01*
X11156670Y-4116800D02*
X11216670Y-4176800D01*
X11216670Y-4116800D02*
X11156670Y-4176800D01*
X11157430Y-12770580D02*
X11217430Y-12830580D01*
X11217430Y-12770580D02*
X11157430Y-12830580D01*
X11190100Y-10397440D02*
X11250100Y-10457440D01*
X11250100Y-10397440D02*
X11190100Y-10457440D01*
X11205100Y-13180070D02*
X11265100Y-13240070D01*
X11265100Y-13180070D02*
X11205100Y-13240070D01*
X11233400Y-8979240D02*
X11293400Y-9039240D01*
X11293400Y-8979240D02*
X11233400Y-9039240D01*
X11234930Y-10544920D02*
X11294930Y-10604920D01*
X11294930Y-10544920D02*
X11234930Y-10604920D01*
X11251490Y-8174200D02*
X11311490Y-8234200D01*
X11311490Y-8174200D02*
X11251490Y-8234200D01*
X11251560Y-6025310D02*
X11311560Y-6085310D01*
X11311560Y-6025310D02*
X11251560Y-6085310D01*
X11256160Y-3989380D02*
X11316160Y-4049380D01*
X11316160Y-3989380D02*
X11256160Y-4049380D01*
X11256700Y-5885730D02*
X11316700Y-5945730D01*
X11316700Y-5885730D02*
X11256700Y-5945730D01*
X11260420Y-6462990D02*
X11320420Y-6522990D01*
X11320420Y-6462990D02*
X11260420Y-6522990D01*
X11276950Y-9948310D02*
X11336950Y-10008310D01*
X11336950Y-9948310D02*
X11276950Y-10008310D01*
X11309150Y-10484760D02*
X11369150Y-10544760D01*
X11369150Y-10484760D02*
X11309150Y-10544760D01*
X11329690Y-5394760D02*
X11389690Y-5454760D01*
X11389690Y-5394760D02*
X11329690Y-5454760D01*
X11337700Y-5957590D02*
X11397700Y-6017590D01*
X11397700Y-5957590D02*
X11337700Y-6017590D01*
X11362810Y-4099530D02*
X11422810Y-4159530D01*
X11422810Y-4099530D02*
X11362810Y-4159530D01*
X11379450Y-9567530D02*
X11439450Y-9627530D01*
X11439450Y-9567530D02*
X11379450Y-9627530D01*
X11393130Y-11867430D02*
X11453130Y-11927430D01*
X11453130Y-11867430D02*
X11393130Y-11927430D01*
X11402130Y-10679290D02*
X11462130Y-10739290D01*
X11462130Y-10679290D02*
X11402130Y-10739290D01*
X11402700Y-11198890D02*
X11462700Y-11258890D01*
X11462700Y-11198890D02*
X11402700Y-11258890D01*
X11417200Y-6571090D02*
X11477200Y-6631090D01*
X11477200Y-6571090D02*
X11417200Y-6631090D01*
X11442440Y-7906470D02*
X11502440Y-7966470D01*
X11502440Y-7906470D02*
X11442440Y-7966470D01*
X11442460Y-8816190D02*
X11502460Y-8876190D01*
X11502460Y-8816190D02*
X11442460Y-8876190D01*
X11448360Y-5560840D02*
X11508360Y-5620840D01*
X11508360Y-5560840D02*
X11448360Y-5620840D01*
X11467000Y-12377240D02*
X11527000Y-12437240D01*
X11527000Y-12377240D02*
X11467000Y-12437240D01*
X11495610Y-4982990D02*
X11555610Y-5042990D01*
X11555610Y-4982990D02*
X11495610Y-5042990D01*
X11506900Y-10853850D02*
X11566900Y-10913850D01*
X11566900Y-10853850D02*
X11506900Y-10913850D01*
X11539750Y-12304490D02*
X11599750Y-12364490D01*
X11599750Y-12304490D02*
X11539750Y-12364490D01*
X11547620Y-9515220D02*
X11607620Y-9575220D01*
X11607620Y-9515220D02*
X11547620Y-9575220D01*
X11552080Y-4747940D02*
X11612080Y-4807940D01*
X11612080Y-4747940D02*
X11552080Y-4807940D01*
X11570010Y-5279220D02*
X11630010Y-5339220D01*
X11630010Y-5279220D02*
X11570010Y-5339220D01*
X11570010Y-5630710D02*
X11630010Y-5690710D01*
X11630010Y-5630710D02*
X11570010Y-5690710D01*
X11578490Y-10407900D02*
X11638490Y-10467900D01*
X11638490Y-10407900D02*
X11578490Y-10467900D01*
X11629680Y-9567530D02*
X11689680Y-9627530D01*
X11689680Y-9567530D02*
X11629680Y-9627530D01*
X11664860Y-12673600D02*
X11724860Y-12733600D01*
X11724860Y-12673600D02*
X11664860Y-12733600D01*
X11678620Y-4098450D02*
X11738620Y-4158450D01*
X11738620Y-4098450D02*
X11678620Y-4158450D01*
X11681040Y-10361340D02*
X11741040Y-10421340D01*
X11741040Y-10361340D02*
X11681040Y-10421340D01*
X11684070Y-6866430D02*
X11744070Y-6926430D01*
X11744070Y-6866430D02*
X11684070Y-6926430D01*
X11688850Y-9863460D02*
X11748850Y-9923460D01*
X11748850Y-9863460D02*
X11688850Y-9923460D01*
X11697030Y-8214630D02*
X11757030Y-8274630D01*
X11757030Y-8214630D02*
X11697030Y-8274630D01*
X11701020Y-11267800D02*
X11761020Y-11327800D01*
X11761020Y-11267800D02*
X11701020Y-11327800D01*
X11704180Y-10987050D02*
X11764180Y-11047050D01*
X11764180Y-10987050D02*
X11704180Y-11047050D01*
X11744080Y-6998920D02*
X11804080Y-7058920D01*
X11804080Y-6998920D02*
X11744080Y-7058920D01*
X11775440Y-10264210D02*
X11835440Y-10324210D01*
X11835440Y-10264210D02*
X11775440Y-10324210D01*
X11775440Y-10719900D02*
X11835440Y-10779900D01*
X11835440Y-10719900D02*
X11775440Y-10779900D01*
X11785050Y-11198890D02*
X11845050Y-11258890D01*
X11845050Y-11198890D02*
X11785050Y-11258890D01*
X11785050Y-12002050D02*
X11845050Y-12062050D01*
X11845050Y-12002050D02*
X11785050Y-12062050D01*
X11813380Y-7609590D02*
X11873380Y-7669590D01*
X11873380Y-7609590D02*
X11813380Y-7669590D01*
X11813380Y-8259490D02*
X11873380Y-8319490D01*
X11873380Y-8259490D02*
X11813380Y-8319490D01*
X11833020Y-5067940D02*
X11893020Y-5127940D01*
X11893020Y-5067940D02*
X11833020Y-5127940D01*
X11839850Y-5387940D02*
X11899850Y-5447940D01*
X11899850Y-5387940D02*
X11839850Y-5447940D01*
X11842320Y-5175820D02*
X11902320Y-5235820D01*
X11902320Y-5175820D02*
X11842320Y-5235820D01*
X11881760Y-7529870D02*
X11941760Y-7589870D01*
X11941760Y-7529870D02*
X11881760Y-7589870D01*
X11887100Y-11207630D02*
X11947100Y-11267630D01*
X11947100Y-11207630D02*
X11887100Y-11267630D01*
X11891910Y-6545690D02*
X11951910Y-6605690D01*
X11951910Y-6545690D02*
X11891910Y-6605690D01*
X11911200Y-7027020D02*
X11971200Y-7087020D01*
X11971200Y-7027020D02*
X11911200Y-7087020D01*
X11913010Y-10085260D02*
X11973010Y-10145260D01*
X11973010Y-10085260D02*
X11913010Y-10145260D01*
X11916080Y-7683450D02*
X11976080Y-7743450D01*
X11976080Y-7683450D02*
X11916080Y-7743450D01*
X11916080Y-8044790D02*
X11976080Y-8104790D01*
X11976080Y-8044790D02*
X11916080Y-8104790D01*
X11961890Y-10780430D02*
X12021890Y-10840430D01*
X12021890Y-10780430D02*
X11961890Y-10840430D01*
X12032570Y-3894430D02*
X12092570Y-3954430D01*
X12092570Y-3894430D02*
X12032570Y-3954430D01*
X12034390Y-7707700D02*
X12094390Y-7767700D01*
X12094390Y-7707700D02*
X12034390Y-7767700D01*
X12044280Y-10345100D02*
X12104280Y-10405100D01*
X12104280Y-10345100D02*
X12044280Y-10405100D01*
X12044420Y-11485750D02*
X12104420Y-11545750D01*
X12104420Y-11485750D02*
X12044420Y-11545750D01*
X12059560Y-9607940D02*
X12119560Y-9667940D01*
X12119560Y-9607940D02*
X12059560Y-9667940D01*
X12075260Y-4621820D02*
X12135260Y-4681820D01*
X12135260Y-4621820D02*
X12075260Y-4681820D01*
X12115000Y-9873270D02*
X12175000Y-9933270D01*
X12175000Y-9873270D02*
X12115000Y-9933270D01*
X12120260Y-7587760D02*
X12180260Y-7647760D01*
X12180260Y-7587760D02*
X12120260Y-7647760D01*
X12132420Y-4901110D02*
X12192420Y-4961110D01*
X12192420Y-4901110D02*
X12132420Y-4961110D01*
X12137050Y-4804800D02*
X12197050Y-4864800D01*
X12197050Y-4804800D02*
X12137050Y-4864800D01*
X12166770Y-8982450D02*
X12226770Y-9042450D01*
X12226770Y-8982450D02*
X12166770Y-9042450D01*
X12216330Y-11714660D02*
X12276330Y-11774660D01*
X12276330Y-11714660D02*
X12216330Y-11774660D01*
X12216330Y-11850090D02*
X12276330Y-11910090D01*
X12276330Y-11850090D02*
X12216330Y-11910090D01*
X12220840Y-11617450D02*
X12280840Y-11677450D01*
X12280840Y-11617450D02*
X12220840Y-11677450D01*
X12222620Y-4134380D02*
X12282620Y-4194380D01*
X12282620Y-4134380D02*
X12222620Y-4194380D01*
X12233240Y-11333060D02*
X12293240Y-11393060D01*
X12293240Y-11333060D02*
X12233240Y-11393060D01*
X12273070Y-10426320D02*
X12333070Y-10486320D01*
X12333070Y-10426320D02*
X12273070Y-10486320D01*
X12284190Y-4907290D02*
X12344190Y-4967290D01*
X12344190Y-4907290D02*
X12284190Y-4967290D01*
X12298150Y-3975910D02*
X12358150Y-4035910D01*
X12358150Y-3975910D02*
X12298150Y-4035910D01*
X12303230Y-9448630D02*
X12363230Y-9508630D01*
X12363230Y-9448630D02*
X12303230Y-9508630D01*
X12304260Y-10698080D02*
X12364260Y-10758080D01*
X12364260Y-10698080D02*
X12304260Y-10758080D01*
X12340530Y-6621610D02*
X12400530Y-6681610D01*
X12400530Y-6621610D02*
X12340530Y-6681610D01*
X12348270Y-7612680D02*
X12408270Y-7672680D01*
X12408270Y-7612680D02*
X12348270Y-7672680D01*
X12351900Y-4667940D02*
X12411900Y-4727940D01*
X12411900Y-4667940D02*
X12351900Y-4727940D01*
X12370790Y-4219170D02*
X12430790Y-4279170D01*
X12430790Y-4219170D02*
X12370790Y-4279170D01*
X12382030Y-6714490D02*
X12442030Y-6774490D01*
X12442030Y-6714490D02*
X12382030Y-6774490D01*
X12385870Y-7825860D02*
X12445870Y-7885860D01*
X12445870Y-7825860D02*
X12385870Y-7885860D01*
X12386840Y-7920880D02*
X12446840Y-7980880D01*
X12446840Y-7920880D02*
X12386840Y-7980880D01*
X12390170Y-4874870D02*
X12450170Y-4934870D01*
X12450170Y-4874870D02*
X12390170Y-4934870D01*
X12455970Y-9561880D02*
X12515970Y-9621880D01*
X12515970Y-9561880D02*
X12455970Y-9621880D01*
X12522370Y-9484740D02*
X12582370Y-9544740D01*
X12582370Y-9484740D02*
X12522370Y-9544740D01*
X12533900Y-7546410D02*
X12593900Y-7606410D01*
X12593900Y-7546410D02*
X12533900Y-7606410D01*
X12566710Y-7451390D02*
X12626710Y-7511390D01*
X12626710Y-7451390D02*
X12566710Y-7511390D01*
X12582200Y-9575440D02*
X12642200Y-9635440D01*
X12642200Y-9575440D02*
X12582200Y-9635440D01*
X12602300Y-11902930D02*
X12662300Y-11962930D01*
X12662300Y-11902930D02*
X12602300Y-11962930D01*
X12637120Y-5387940D02*
X12697120Y-5447940D01*
X12697120Y-5387940D02*
X12637120Y-5447940D01*
X12639330Y-7389640D02*
X12699330Y-7449640D01*
X12699330Y-7389640D02*
X12639330Y-7449640D01*
X12680720Y-9573330D02*
X12740720Y-9633330D01*
X12740720Y-9573330D02*
X12680720Y-9633330D01*
X12700050Y-8205290D02*
X12760050Y-8265290D01*
X12760050Y-8205290D02*
X12700050Y-8265290D01*
X12707950Y-7253010D02*
X12767950Y-7313010D01*
X12767950Y-7253010D02*
X12707950Y-7313010D01*
X12726630Y-3442070D02*
X12786630Y-3502070D01*
X12786630Y-3442070D02*
X12726630Y-3502070D01*
X12737970Y-5067940D02*
X12797970Y-5127940D01*
X12797970Y-5067940D02*
X12737970Y-5127940D01*
X12770280Y-7979000D02*
X12830280Y-8039000D01*
X12830280Y-7979000D02*
X12770280Y-8039000D01*
X12821840Y-12113200D02*
X12881840Y-12173200D01*
X12881840Y-12113200D02*
X12821840Y-12173200D01*
X12831990Y-6759880D02*
X12891990Y-6819880D01*
X12891990Y-6759880D02*
X12831990Y-6819880D01*
X12846120Y-7114830D02*
X12906120Y-7174830D01*
X12906120Y-7114830D02*
X12846120Y-7174830D01*
X12856150Y-9504150D02*
X12916150Y-9564150D01*
X12916150Y-9504150D02*
X12856150Y-9564150D01*
X12876550Y-8956510D02*
X12936550Y-9016510D01*
X12936550Y-8956510D02*
X12876550Y-9016510D01*
X12880410Y-11285080D02*
X12940410Y-11345080D01*
X12940410Y-11285080D02*
X12880410Y-11345080D01*
X12881350Y-3668690D02*
X12941350Y-3728690D01*
X12941350Y-3668690D02*
X12881350Y-3728690D01*
X12898420Y-10188290D02*
X12958420Y-10248290D01*
X12958420Y-10188290D02*
X12898420Y-10248290D01*
X12918770Y-8353560D02*
X12978770Y-8413560D01*
X12978770Y-8353560D02*
X12918770Y-8413560D01*
X12977730Y-4924910D02*
X13037730Y-4984910D01*
X13037730Y-4924910D02*
X12977730Y-4984910D01*
X12989170Y-4827940D02*
X13049170Y-4887940D01*
X13049170Y-4827940D02*
X12989170Y-4887940D01*
X12996040Y-5340200D02*
X13056040Y-5400200D01*
X13056040Y-5340200D02*
X12996040Y-5400200D01*
X13025400Y-11817440D02*
X13085400Y-11877440D01*
X13085400Y-11817440D02*
X13025400Y-11877440D01*
X13035460Y-4249270D02*
X13095460Y-4309270D01*
X13095460Y-4249270D02*
X13035460Y-4309270D01*
X13039520Y-10504260D02*
X13099520Y-10564260D01*
X13099520Y-10504260D02*
X13039520Y-10564260D01*
X13042440Y-9504150D02*
X13102440Y-9564150D01*
X13102440Y-9504150D02*
X13042440Y-9564150D01*
X13066400Y-11682010D02*
X13126400Y-11742010D01*
X13126400Y-11682010D02*
X13066400Y-11742010D01*
X13085280Y-5682600D02*
X13145280Y-5742600D01*
X13145280Y-5682600D02*
X13085280Y-5742600D01*
X13130070Y-9964690D02*
X13190070Y-10024690D01*
X13190070Y-9964690D02*
X13130070Y-10024690D01*
X13133760Y-8726500D02*
X13193760Y-8786500D01*
X13193760Y-8726500D02*
X13133760Y-8786500D01*
X13141520Y-8195250D02*
X13201520Y-8255250D01*
X13201520Y-8195250D02*
X13141520Y-8255250D01*
X13171160Y-7489550D02*
X13231160Y-7549550D01*
X13231160Y-7489550D02*
X13171160Y-7549550D01*
X13198770Y-11688120D02*
X13258770Y-11748120D01*
X13258770Y-11688120D02*
X13198770Y-11748120D01*
X13215100Y-4406040D02*
X13275100Y-4466040D01*
X13275100Y-4406040D02*
X13215100Y-4466040D01*
X13274920Y-5782030D02*
X13334920Y-5842030D01*
X13334920Y-5782030D02*
X13274920Y-5842030D01*
X13286540Y-8265740D02*
X13346540Y-8325740D01*
X13346540Y-8265740D02*
X13286540Y-8325740D01*
X13293770Y-9785100D02*
X13353770Y-9845100D01*
X13353770Y-9785100D02*
X13293770Y-9845100D01*
X13298830Y-12657390D02*
X13358830Y-12717390D01*
X13358830Y-12657390D02*
X13298830Y-12717390D01*
X13318160Y-11411860D02*
X13378160Y-11471860D01*
X13378160Y-11411860D02*
X13318160Y-11471860D01*
X13325510Y-4652840D02*
X13385510Y-4712840D01*
X13385510Y-4652840D02*
X13325510Y-4712840D01*
X13338550Y-11742410D02*
X13398550Y-11802410D01*
X13398550Y-11742410D02*
X13338550Y-11802410D01*
X13380920Y-9833720D02*
X13440920Y-9893720D01*
X13440920Y-9833720D02*
X13380920Y-9893720D01*
X13389610Y-12837470D02*
X13449610Y-12897470D01*
X13449610Y-12837470D02*
X13389610Y-12897470D01*
X13409260Y-10895000D02*
X13469260Y-10955000D01*
X13469260Y-10895000D02*
X13409260Y-10955000D01*
X13414110Y-12146690D02*
X13474110Y-12206690D01*
X13474110Y-12146690D02*
X13414110Y-12206690D01*
X13455100Y-11374260D02*
X13515100Y-11434260D01*
X13515100Y-11374260D02*
X13455100Y-11434260D01*
X13489620Y-11512270D02*
X13549620Y-11572270D01*
X13549620Y-11512270D02*
X13489620Y-11572270D01*
X13514060Y-10405120D02*
X13574060Y-10465120D01*
X13574060Y-10405120D02*
X13514060Y-10465120D01*
X13526120Y-11711810D02*
X13586120Y-11771810D01*
X13586120Y-11711810D02*
X13526120Y-11771810D01*
X13537200Y-10626320D02*
X13597200Y-10686320D01*
X13597200Y-10626320D02*
X13537200Y-10686320D01*
X13537200Y-10933880D02*
X13597200Y-10993880D01*
X13597200Y-10933880D02*
X13537200Y-10993880D01*
X13667670Y-4814870D02*
X13727670Y-4874870D01*
X13727670Y-4814870D02*
X13667670Y-4874870D01*
X13674040Y-9423100D02*
X13734040Y-9483100D01*
X13734040Y-9423100D02*
X13674040Y-9483100D01*
X13674040Y-9829470D02*
X13734040Y-9889470D01*
X13734040Y-9829470D02*
X13674040Y-9889470D01*
X13687250Y-12285020D02*
X13747250Y-12345020D01*
X13747250Y-12285020D02*
X13687250Y-12345020D01*
X13704670Y-10395170D02*
X13764670Y-10455170D01*
X13764670Y-10395170D02*
X13704670Y-10455170D01*
X13743220Y-7683940D02*
X13803220Y-7743940D01*
X13803220Y-7683940D02*
X13743220Y-7743940D01*
X13762690Y-11271410D02*
X13822690Y-11331410D01*
X13822690Y-11271410D02*
X13762690Y-11331410D01*
X13767730Y-4883990D02*
X13827730Y-4943990D01*
X13827730Y-4883990D02*
X13767730Y-4943990D01*
X13880920Y-12320410D02*
X13940920Y-12380410D01*
X13940920Y-12320410D02*
X13880920Y-12380410D01*
X13883180Y-12216940D02*
X13943180Y-12276940D01*
X13943180Y-12216940D02*
X13883180Y-12276940D01*
X13920910Y-10472370D02*
X13980910Y-10532370D01*
X13980910Y-10472370D02*
X13920910Y-10532370D01*
X13934610Y-11149550D02*
X13994610Y-11209550D01*
X13994610Y-11149550D02*
X13934610Y-11209550D01*
X13967830Y-10368300D02*
X14027830Y-10428300D01*
X14027830Y-10368300D02*
X13967830Y-10428300D01*
X13991720Y-9848280D02*
X14051720Y-9908280D01*
X14051720Y-9848280D02*
X13991720Y-9908280D01*
X14020950Y-8433140D02*
X14080950Y-8493140D01*
X14080950Y-8433140D02*
X14020950Y-8493140D01*
X14032320Y-11121760D02*
X14092320Y-11181760D01*
X14092320Y-11121760D02*
X14032320Y-11181760D01*
X14033230Y-4814870D02*
X14093230Y-4874870D01*
X14093230Y-4814870D02*
X14033230Y-4874870D01*
X14037340Y-5575790D02*
X14097340Y-5635790D01*
X14097340Y-5575790D02*
X14037340Y-5635790D01*
X14054040Y-12922720D02*
X14114040Y-12982720D01*
X14114040Y-12922720D02*
X14054040Y-12982720D01*
X14121550Y-10785330D02*
X14181550Y-10845330D01*
X14181550Y-10785330D02*
X14121550Y-10845330D01*
X14121550Y-11019380D02*
X14181550Y-11079380D01*
X14181550Y-11019380D02*
X14121550Y-11079380D01*
X14146940Y-12318000D02*
X14206940Y-12378000D01*
X14206940Y-12318000D02*
X14146940Y-12378000D01*
X14179140Y-9800310D02*
X14239140Y-9860310D01*
X14239140Y-9800310D02*
X14179140Y-9860310D01*
X14201530Y-9619800D02*
X14261530Y-9679800D01*
X14261530Y-9619800D02*
X14201530Y-9679800D01*
X14223090Y-11149090D02*
X14283090Y-11209090D01*
X14283090Y-11149090D02*
X14223090Y-11209090D01*
X14239730Y-7165210D02*
X14299730Y-7225210D01*
X14299730Y-7165210D02*
X14239730Y-7225210D01*
X14277360Y-7844940D02*
X14337360Y-7904940D01*
X14337360Y-7844940D02*
X14277360Y-7904940D01*
X14290800Y-10531110D02*
X14350800Y-10591110D01*
X14350800Y-10531110D02*
X14290800Y-10591110D01*
X14297060Y-6435510D02*
X14357060Y-6495510D01*
X14357060Y-6435510D02*
X14297060Y-6495510D01*
X14319820Y-7498310D02*
X14379820Y-7558310D01*
X14379820Y-7498310D02*
X14319820Y-7558310D01*
X14320770Y-10634090D02*
X14380770Y-10694090D01*
X14380770Y-10634090D02*
X14320770Y-10694090D01*
X14357520Y-5905700D02*
X14417520Y-5965700D01*
X14417520Y-5905700D02*
X14357520Y-5965700D01*
X14357870Y-5650520D02*
X14417870Y-5710520D01*
X14417870Y-5650520D02*
X14357870Y-5710520D01*
X14389300Y-12119810D02*
X14449300Y-12179810D01*
X14449300Y-12119810D02*
X14389300Y-12179810D01*
X14441220Y-7424880D02*
X14501220Y-7484880D01*
X14501220Y-7424880D02*
X14441220Y-7484880D01*
X14464090Y-11844980D02*
X14524090Y-11904980D01*
X14524090Y-11844980D02*
X14464090Y-11904980D01*
X14502950Y-12338890D02*
X14562950Y-12398890D01*
X14562950Y-12338890D02*
X14502950Y-12398890D01*
X14513860Y-5749360D02*
X14573860Y-5809360D01*
X14573860Y-5749360D02*
X14513860Y-5809360D01*
X14543790Y-11583570D02*
X14603790Y-11643570D01*
X14603790Y-11583570D02*
X14543790Y-11643570D01*
X14576590Y-11487030D02*
X14636590Y-11547030D01*
X14636590Y-11487030D02*
X14576590Y-11547030D01*
X14630130Y-10592090D02*
X14690130Y-10652090D01*
X14690130Y-10592090D02*
X14630130Y-10652090D01*
X14630130Y-11227860D02*
X14690130Y-11287860D01*
X14690130Y-11227860D02*
X14630130Y-11287860D01*
X14647440Y-12127370D02*
X14707440Y-12187370D01*
X14707440Y-12127370D02*
X14647440Y-12187370D01*
X14680910Y-11576500D02*
X14740910Y-11636500D01*
X14740910Y-11576500D02*
X14680910Y-11636500D01*
X14682140Y-10284840D02*
X14742140Y-10344840D01*
X14742140Y-10284840D02*
X14682140Y-10344840D01*
X15020180Y-11576500D02*
X15080180Y-11636500D01*
X15080180Y-11576500D02*
X15020180Y-11636500D01*
D10*
X13684640Y-5547140D02*
G75*
G03*
X13684640Y-5547140I-50000J0D01*
G01*
X13684640Y-5801140D02*
G75*
G03*
X13684640Y-5801140I-50000J0D01*
G01*
X13684640Y-6055140D02*
G75*
G03*
X13684640Y-6055140I-50000J0D01*
G01*
X13684640Y-6309140D02*
G75*
G03*
X13684640Y-6309140I-50000J0D01*
G01*
X13684640Y-6563140D02*
G75*
G03*
X13684640Y-6563140I-50000J0D01*
G01*
X13684640Y-6817140D02*
G75*
G03*
X13684640Y-6817140I-50000J0D01*
G01*
X13684640Y-7071140D02*
G75*
G03*
X13684640Y-7071140I-50000J0D01*
G01*
X13684640Y-7325140D02*
G75*
G03*
X13684640Y-7325140I-50000J0D01*
G01*
X13684640Y-7579140D02*
G75*
G03*
X13684640Y-7579140I-50000J0D01*
G01*
X13684640Y-7833140D02*
G75*
G03*
X13684640Y-7833140I-50000J0D01*
G01*
X13684640Y-8087140D02*
G75*
G03*
X13684640Y-8087140I-50000J0D01*
G01*
X13684640Y-8341140D02*
G75*
G03*
X13684640Y-8341140I-50000J0D01*
G01*
X13684640Y-8595140D02*
G75*
G03*
X13684640Y-8595140I-50000J0D01*
G01*
X13684640Y-8849140D02*
G75*
G03*
X13684640Y-8849140I-50000J0D01*
G01*
X13684640Y-9103140D02*
G75*
G03*
X13684640Y-9103140I-50000J0D01*
G01*
X13938640Y-5547140D02*
G75*
G03*
X13938640Y-5547140I-50000J0D01*
G01*
X13938640Y-5801140D02*
G75*
G03*
X13938640Y-5801140I-50000J0D01*
G01*
X13938640Y-6055140D02*
G75*
G03*
X13938640Y-6055140I-50000J0D01*
G01*
X13938640Y-6309140D02*
G75*
G03*
X13938640Y-6309140I-50000J0D01*
G01*
X13938640Y-6563140D02*
G75*
G03*
X13938640Y-6563140I-50000J0D01*
G01*
X13938640Y-6817140D02*
G75*
G03*
X13938640Y-6817140I-50000J0D01*
G01*
X13938640Y-7071140D02*
G75*
G03*
X13938640Y-7071140I-50000J0D01*
G01*
X13938640Y-7325140D02*
G75*
G03*
X13938640Y-7325140I-50000J0D01*
G01*
X13938640Y-7579140D02*
G75*
G03*
X13938640Y-7579140I-50000J0D01*
G01*
X13938640Y-7833140D02*
G75*
G03*
X13938640Y-7833140I-50000J0D01*
G01*
X13938640Y-8087140D02*
G75*
G03*
X13938640Y-8087140I-50000J0D01*
G01*
X13938640Y-8341140D02*
G75*
G03*
X13938640Y-8341140I-50000J0D01*
G01*
X13938640Y-8595140D02*
G75*
G03*
X13938640Y-8595140I-50000J0D01*
G01*
X13938640Y-8849140D02*
G75*
G03*
X13938640Y-8849140I-50000J0D01*
G01*
X13938640Y-9103140D02*
G75*
G03*
X13938640Y-9103140I-50000J0D01*
G01*
D13*
X8279080Y-12183090D02*
X8279080Y-12343090D01*
X8199080Y-12263090D02*
X8359080Y-12263090D01*
X8279080Y-12733090D02*
X8279080Y-12893090D01*
X8199080Y-12813090D02*
X8359080Y-12813090D01*
D14*
X8339185Y-12053195D02*
X8339185Y-11932985D01*
X8218975Y-11932985D01*
X8218975Y-12053195D01*
X8339185Y-12053195D01*
D15*
X7979080Y-12220590D02*
X8086580Y-12113090D01*
X7979080Y-12005590D01*
X7871580Y-12113090D01*
X7979080Y-12220590D01*
X8579080Y-12320590D02*
X8686580Y-12213090D01*
X8579080Y-12105590D01*
X8471580Y-12213090D01*
X8579080Y-12320590D01*
D11*
X5361672Y-13675416D02*
X5361672Y-13475416D01*
X5409291Y-13475416D01*
X5437863Y-13484940D01*
X5456910Y-13503987D01*
X5466434Y-13523035D01*
X5475958Y-13561130D01*
X5475958Y-13589702D01*
X5466434Y-13627797D01*
X5456910Y-13646844D01*
X5437863Y-13665892D01*
X5409291Y-13675416D01*
X5361672Y-13675416D01*
X5561672Y-13675416D02*
X5561672Y-13542083D01*
X5561672Y-13580178D02*
X5571196Y-13561130D01*
X5580720Y-13551606D01*
X5599767Y-13542083D01*
X5618815Y-13542083D01*
X5685481Y-13675416D02*
X5685481Y-13542083D01*
X5685481Y-13475416D02*
X5675958Y-13484940D01*
X5685481Y-13494464D01*
X5695005Y-13484940D01*
X5685481Y-13475416D01*
X5685481Y-13494464D01*
X5809291Y-13675416D02*
X5790243Y-13665892D01*
X5780720Y-13646844D01*
X5780720Y-13475416D01*
X5914053Y-13675416D02*
X5895005Y-13665892D01*
X5885481Y-13646844D01*
X5885481Y-13475416D01*
X6142624Y-13675416D02*
X6142624Y-13475416D01*
X6209291Y-13618273D01*
X6275958Y-13475416D01*
X6275958Y-13675416D01*
X6456910Y-13675416D02*
X6456910Y-13570654D01*
X6447386Y-13551606D01*
X6428339Y-13542083D01*
X6390243Y-13542083D01*
X6371196Y-13551606D01*
X6456910Y-13665892D02*
X6437862Y-13675416D01*
X6390243Y-13675416D01*
X6371196Y-13665892D01*
X6361672Y-13646844D01*
X6361672Y-13627797D01*
X6371196Y-13608749D01*
X6390243Y-13599225D01*
X6437862Y-13599225D01*
X6456910Y-13589702D01*
X6552148Y-13542083D02*
X6552148Y-13742083D01*
X6552148Y-13551606D02*
X6571196Y-13542083D01*
X6609291Y-13542083D01*
X6628339Y-13551606D01*
X6637862Y-13561130D01*
X6647386Y-13580178D01*
X6647386Y-13637321D01*
X6637862Y-13656368D01*
X6628339Y-13665892D01*
X6609291Y-13675416D01*
X6571196Y-13675416D01*
X6552148Y-13665892D01*
X6733101Y-13656368D02*
X6742624Y-13665892D01*
X6733101Y-13675416D01*
X6723577Y-13665892D01*
X6733101Y-13656368D01*
X6733101Y-13675416D01*
X6733101Y-13551606D02*
X6742624Y-13561130D01*
X6733101Y-13570654D01*
X6723577Y-13561130D01*
X6733101Y-13551606D01*
X6733101Y-13570654D01*
D12*
X5044053Y-13974940D02*
X5104053Y-14034940D01*
X5104053Y-13974940D02*
X5044053Y-14034940D01*
D11*
X5399767Y-13895416D02*
X5418815Y-13895416D01*
X5437863Y-13904940D01*
X5447386Y-13914464D01*
X5456910Y-13933511D01*
X5466434Y-13971606D01*
X5466434Y-14019225D01*
X5456910Y-14057321D01*
X5447386Y-14076368D01*
X5437863Y-14085892D01*
X5418815Y-14095416D01*
X5399767Y-14095416D01*
X5380720Y-14085892D01*
X5371196Y-14076368D01*
X5361672Y-14057321D01*
X5352148Y-14019225D01*
X5352148Y-13971606D01*
X5361672Y-13933511D01*
X5371196Y-13914464D01*
X5380720Y-13904940D01*
X5399767Y-13895416D01*
X5552148Y-14076368D02*
X5561672Y-14085892D01*
X5552148Y-14095416D01*
X5542624Y-14085892D01*
X5552148Y-14076368D01*
X5552148Y-14095416D01*
X5733101Y-13895416D02*
X5695005Y-13895416D01*
X5675958Y-13904940D01*
X5666434Y-13914464D01*
X5647386Y-13943035D01*
X5637862Y-13981130D01*
X5637862Y-14057321D01*
X5647386Y-14076368D01*
X5656910Y-14085892D01*
X5675958Y-14095416D01*
X5714053Y-14095416D01*
X5733101Y-14085892D01*
X5742624Y-14076368D01*
X5752148Y-14057321D01*
X5752148Y-14009702D01*
X5742624Y-13990654D01*
X5733101Y-13981130D01*
X5714053Y-13971606D01*
X5675958Y-13971606D01*
X5656910Y-13981130D01*
X5647386Y-13990654D01*
X5637862Y-14009702D01*
X5875958Y-13895416D02*
X5895005Y-13895416D01*
X5914053Y-13904940D01*
X5923577Y-13914464D01*
X5933101Y-13933511D01*
X5942624Y-13971606D01*
X5942624Y-14019225D01*
X5933101Y-14057321D01*
X5923577Y-14076368D01*
X5914053Y-14085892D01*
X5895005Y-14095416D01*
X5875958Y-14095416D01*
X5856910Y-14085892D01*
X5847386Y-14076368D01*
X5837862Y-14057321D01*
X5828339Y-14019225D01*
X5828339Y-13971606D01*
X5837862Y-13933511D01*
X5847386Y-13914464D01*
X5856910Y-13904940D01*
X5875958Y-13895416D01*
X6066434Y-13895416D02*
X6085481Y-13895416D01*
X6104529Y-13904940D01*
X6114053Y-13914464D01*
X6123577Y-13933511D01*
X6133101Y-13971606D01*
X6133101Y-14019225D01*
X6123577Y-14057321D01*
X6114053Y-14076368D01*
X6104529Y-14085892D01*
X6085481Y-14095416D01*
X6066434Y-14095416D01*
X6047386Y-14085892D01*
X6037862Y-14076368D01*
X6028339Y-14057321D01*
X6018815Y-14019225D01*
X6018815Y-13971606D01*
X6028339Y-13933511D01*
X6037862Y-13914464D01*
X6047386Y-13904940D01*
X6066434Y-13895416D01*
X6218815Y-14095416D02*
X6218815Y-13962083D01*
X6218815Y-13981130D02*
X6228339Y-13971606D01*
X6247386Y-13962083D01*
X6275958Y-13962083D01*
X6295005Y-13971606D01*
X6304529Y-13990654D01*
X6304529Y-14095416D01*
X6304529Y-13990654D02*
X6314053Y-13971606D01*
X6333101Y-13962083D01*
X6361672Y-13962083D01*
X6380720Y-13971606D01*
X6390243Y-13990654D01*
X6390243Y-14095416D01*
X6485481Y-14095416D02*
X6485481Y-13962083D01*
X6485481Y-13981130D02*
X6495005Y-13971606D01*
X6514053Y-13962083D01*
X6542624Y-13962083D01*
X6561672Y-13971606D01*
X6571196Y-13990654D01*
X6571196Y-14095416D01*
X6571196Y-13990654D02*
X6580720Y-13971606D01*
X6599767Y-13962083D01*
X6628339Y-13962083D01*
X6647386Y-13971606D01*
X6656910Y-13990654D01*
X6656910Y-14095416D01*
X7047386Y-13885892D02*
X6875958Y-14143035D01*
X7304529Y-13895416D02*
X7323577Y-13895416D01*
X7342624Y-13904940D01*
X7352148Y-13914464D01*
X7361672Y-13933511D01*
X7371196Y-13971606D01*
X7371196Y-14019225D01*
X7361672Y-14057321D01*
X7352148Y-14076368D01*
X7342624Y-14085892D01*
X7323577Y-14095416D01*
X7304529Y-14095416D01*
X7285481Y-14085892D01*
X7275958Y-14076368D01*
X7266434Y-14057321D01*
X7256910Y-14019225D01*
X7256910Y-13971606D01*
X7266434Y-13933511D01*
X7275958Y-13914464D01*
X7285481Y-13904940D01*
X7304529Y-13895416D01*
X7456910Y-14076368D02*
X7466434Y-14085892D01*
X7456910Y-14095416D01*
X7447386Y-14085892D01*
X7456910Y-14076368D01*
X7456910Y-14095416D01*
X7590243Y-13895416D02*
X7609291Y-13895416D01*
X7628339Y-13904940D01*
X7637862Y-13914464D01*
X7647386Y-13933511D01*
X7656910Y-13971606D01*
X7656910Y-14019225D01*
X7647386Y-14057321D01*
X7637862Y-14076368D01*
X7628339Y-14085892D01*
X7609291Y-14095416D01*
X7590243Y-14095416D01*
X7571196Y-14085892D01*
X7561672Y-14076368D01*
X7552148Y-14057321D01*
X7542624Y-14019225D01*
X7542624Y-13971606D01*
X7552148Y-13933511D01*
X7561672Y-13914464D01*
X7571196Y-13904940D01*
X7590243Y-13895416D01*
X7733101Y-13914464D02*
X7742624Y-13904940D01*
X7761672Y-13895416D01*
X7809291Y-13895416D01*
X7828339Y-13904940D01*
X7837862Y-13914464D01*
X7847386Y-13933511D01*
X7847386Y-13952559D01*
X7837862Y-13981130D01*
X7723577Y-14095416D01*
X7847386Y-14095416D01*
X7914053Y-13895416D02*
X8037862Y-13895416D01*
X7971196Y-13971606D01*
X7999767Y-13971606D01*
X8018815Y-13981130D01*
X8028339Y-13990654D01*
X8037862Y-14009702D01*
X8037862Y-14057321D01*
X8028339Y-14076368D01*
X8018815Y-14085892D01*
X7999767Y-14095416D01*
X7942624Y-14095416D01*
X7923577Y-14085892D01*
X7914053Y-14076368D01*
X8209291Y-13895416D02*
X8171196Y-13895416D01*
X8152148Y-13904940D01*
X8142624Y-13914464D01*
X8123577Y-13943035D01*
X8114053Y-13981130D01*
X8114053Y-14057321D01*
X8123577Y-14076368D01*
X8133101Y-14085892D01*
X8152148Y-14095416D01*
X8190243Y-14095416D01*
X8209291Y-14085892D01*
X8218815Y-14076368D01*
X8228339Y-14057321D01*
X8228339Y-14009702D01*
X8218815Y-13990654D01*
X8209291Y-13981130D01*
X8190243Y-13971606D01*
X8152148Y-13971606D01*
X8133101Y-13981130D01*
X8123577Y-13990654D01*
X8114053Y-14009702D01*
X8304529Y-13895416D02*
X8304529Y-13933511D01*
X8380720Y-13895416D02*
X8380720Y-13933511D01*
X8675958Y-14171606D02*
X8666434Y-14162083D01*
X8647386Y-14133511D01*
X8637863Y-14114464D01*
X8628339Y-14085892D01*
X8618815Y-14038273D01*
X8618815Y-14000178D01*
X8628339Y-13952559D01*
X8637863Y-13923987D01*
X8647386Y-13904940D01*
X8666434Y-13876368D01*
X8675958Y-13866844D01*
X8837863Y-13962083D02*
X8837863Y-14095416D01*
X8790243Y-13885892D02*
X8742624Y-14028749D01*
X8866434Y-14028749D01*
X8971196Y-13981130D02*
X8952148Y-13971606D01*
X8942624Y-13962083D01*
X8933101Y-13943035D01*
X8933101Y-13933511D01*
X8942624Y-13914464D01*
X8952148Y-13904940D01*
X8971196Y-13895416D01*
X9009291Y-13895416D01*
X9028339Y-13904940D01*
X9037863Y-13914464D01*
X9047386Y-13933511D01*
X9047386Y-13943035D01*
X9037863Y-13962083D01*
X9028339Y-13971606D01*
X9009291Y-13981130D01*
X8971196Y-13981130D01*
X8952148Y-13990654D01*
X8942624Y-14000178D01*
X8933101Y-14019225D01*
X8933101Y-14057321D01*
X8942624Y-14076368D01*
X8952148Y-14085892D01*
X8971196Y-14095416D01*
X9009291Y-14095416D01*
X9028339Y-14085892D01*
X9037863Y-14076368D01*
X9047386Y-14057321D01*
X9047386Y-14019225D01*
X9037863Y-14000178D01*
X9028339Y-13990654D01*
X9009291Y-13981130D01*
X9228339Y-13895416D02*
X9133101Y-13895416D01*
X9123577Y-13990654D01*
X9133101Y-13981130D01*
X9152148Y-13971606D01*
X9199767Y-13971606D01*
X9218815Y-13981130D01*
X9228339Y-13990654D01*
X9237863Y-14009702D01*
X9237863Y-14057321D01*
X9228339Y-14076368D01*
X9218815Y-14085892D01*
X9199767Y-14095416D01*
X9152148Y-14095416D01*
X9133101Y-14085892D01*
X9123577Y-14076368D01*
X9475958Y-14095416D02*
X9475958Y-13895416D01*
X9561672Y-14095416D02*
X9561672Y-13990654D01*
X9552148Y-13971606D01*
X9533101Y-13962083D01*
X9504529Y-13962083D01*
X9485482Y-13971606D01*
X9475958Y-13981130D01*
X9685482Y-14095416D02*
X9666434Y-14085892D01*
X9656910Y-14076368D01*
X9647386Y-14057321D01*
X9647386Y-14000178D01*
X9656910Y-13981130D01*
X9666434Y-13971606D01*
X9685482Y-13962083D01*
X9714053Y-13962083D01*
X9733101Y-13971606D01*
X9742624Y-13981130D01*
X9752148Y-14000178D01*
X9752148Y-14057321D01*
X9742624Y-14076368D01*
X9733101Y-14085892D01*
X9714053Y-14095416D01*
X9685482Y-14095416D01*
X9866434Y-14095416D02*
X9847386Y-14085892D01*
X9837863Y-14066844D01*
X9837863Y-13895416D01*
X10018815Y-14085892D02*
X9999767Y-14095416D01*
X9961672Y-14095416D01*
X9942624Y-14085892D01*
X9933101Y-14066844D01*
X9933101Y-13990654D01*
X9942624Y-13971606D01*
X9961672Y-13962083D01*
X9999767Y-13962083D01*
X10018815Y-13971606D01*
X10028339Y-13990654D01*
X10028339Y-14009702D01*
X9933101Y-14028749D01*
X10104529Y-14085892D02*
X10123577Y-14095416D01*
X10161672Y-14095416D01*
X10180720Y-14085892D01*
X10190243Y-14066844D01*
X10190243Y-14057321D01*
X10180720Y-14038273D01*
X10161672Y-14028749D01*
X10133101Y-14028749D01*
X10114053Y-14019225D01*
X10104529Y-14000178D01*
X10104529Y-13990654D01*
X10114053Y-13971606D01*
X10133101Y-13962083D01*
X10161672Y-13962083D01*
X10180720Y-13971606D01*
X10256910Y-14171606D02*
X10266434Y-14162083D01*
X10285482Y-14133511D01*
X10295005Y-14114464D01*
X10304529Y-14085892D01*
X10314053Y-14038273D01*
X10314053Y-14000178D01*
X10304529Y-13952559D01*
X10295005Y-13923987D01*
X10285482Y-13904940D01*
X10266434Y-13876368D01*
X10256910Y-13866844D01*
D10*
X5104053Y-14268940D02*
G75*
G03*
X5104053Y-14268940I-50000J0D01*
G01*
D11*
X5466434Y-14359416D02*
X5352148Y-14359416D01*
X5409291Y-14359416D02*
X5409291Y-14159416D01*
X5390243Y-14187987D01*
X5371196Y-14207035D01*
X5352148Y-14216559D01*
X5552148Y-14340368D02*
X5561672Y-14349892D01*
X5552148Y-14359416D01*
X5542624Y-14349892D01*
X5552148Y-14340368D01*
X5552148Y-14359416D01*
X5685481Y-14159416D02*
X5704529Y-14159416D01*
X5723577Y-14168940D01*
X5733101Y-14178464D01*
X5742624Y-14197511D01*
X5752148Y-14235606D01*
X5752148Y-14283225D01*
X5742624Y-14321321D01*
X5733101Y-14340368D01*
X5723577Y-14349892D01*
X5704529Y-14359416D01*
X5685481Y-14359416D01*
X5666434Y-14349892D01*
X5656910Y-14340368D01*
X5647386Y-14321321D01*
X5637862Y-14283225D01*
X5637862Y-14235606D01*
X5647386Y-14197511D01*
X5656910Y-14178464D01*
X5666434Y-14168940D01*
X5685481Y-14159416D01*
X5875958Y-14159416D02*
X5895005Y-14159416D01*
X5914053Y-14168940D01*
X5923577Y-14178464D01*
X5933101Y-14197511D01*
X5942624Y-14235606D01*
X5942624Y-14283225D01*
X5933101Y-14321321D01*
X5923577Y-14340368D01*
X5914053Y-14349892D01*
X5895005Y-14359416D01*
X5875958Y-14359416D01*
X5856910Y-14349892D01*
X5847386Y-14340368D01*
X5837862Y-14321321D01*
X5828339Y-14283225D01*
X5828339Y-14235606D01*
X5837862Y-14197511D01*
X5847386Y-14178464D01*
X5856910Y-14168940D01*
X5875958Y-14159416D01*
X6066434Y-14159416D02*
X6085481Y-14159416D01*
X6104529Y-14168940D01*
X6114053Y-14178464D01*
X6123577Y-14197511D01*
X6133101Y-14235606D01*
X6133101Y-14283225D01*
X6123577Y-14321321D01*
X6114053Y-14340368D01*
X6104529Y-14349892D01*
X6085481Y-14359416D01*
X6066434Y-14359416D01*
X6047386Y-14349892D01*
X6037862Y-14340368D01*
X6028339Y-14321321D01*
X6018815Y-14283225D01*
X6018815Y-14235606D01*
X6028339Y-14197511D01*
X6037862Y-14178464D01*
X6047386Y-14168940D01*
X6066434Y-14159416D01*
X6218815Y-14359416D02*
X6218815Y-14226083D01*
X6218815Y-14245130D02*
X6228339Y-14235606D01*
X6247386Y-14226083D01*
X6275958Y-14226083D01*
X6295005Y-14235606D01*
X6304529Y-14254654D01*
X6304529Y-14359416D01*
X6304529Y-14254654D02*
X6314053Y-14235606D01*
X6333101Y-14226083D01*
X6361672Y-14226083D01*
X6380720Y-14235606D01*
X6390243Y-14254654D01*
X6390243Y-14359416D01*
X6485481Y-14359416D02*
X6485481Y-14226083D01*
X6485481Y-14245130D02*
X6495005Y-14235606D01*
X6514053Y-14226083D01*
X6542624Y-14226083D01*
X6561672Y-14235606D01*
X6571196Y-14254654D01*
X6571196Y-14359416D01*
X6571196Y-14254654D02*
X6580720Y-14235606D01*
X6599767Y-14226083D01*
X6628339Y-14226083D01*
X6647386Y-14235606D01*
X6656910Y-14254654D01*
X6656910Y-14359416D01*
X7047386Y-14149892D02*
X6875958Y-14407035D01*
X7304529Y-14159416D02*
X7323577Y-14159416D01*
X7342624Y-14168940D01*
X7352148Y-14178464D01*
X7361672Y-14197511D01*
X7371196Y-14235606D01*
X7371196Y-14283225D01*
X7361672Y-14321321D01*
X7352148Y-14340368D01*
X7342624Y-14349892D01*
X7323577Y-14359416D01*
X7304529Y-14359416D01*
X7285481Y-14349892D01*
X7275958Y-14340368D01*
X7266434Y-14321321D01*
X7256910Y-14283225D01*
X7256910Y-14235606D01*
X7266434Y-14197511D01*
X7275958Y-14178464D01*
X7285481Y-14168940D01*
X7304529Y-14159416D01*
X7456910Y-14340368D02*
X7466434Y-14349892D01*
X7456910Y-14359416D01*
X7447386Y-14349892D01*
X7456910Y-14340368D01*
X7456910Y-14359416D01*
X7590243Y-14159416D02*
X7609291Y-14159416D01*
X7628339Y-14168940D01*
X7637862Y-14178464D01*
X7647386Y-14197511D01*
X7656910Y-14235606D01*
X7656910Y-14283225D01*
X7647386Y-14321321D01*
X7637862Y-14340368D01*
X7628339Y-14349892D01*
X7609291Y-14359416D01*
X7590243Y-14359416D01*
X7571196Y-14349892D01*
X7561672Y-14340368D01*
X7552148Y-14321321D01*
X7542624Y-14283225D01*
X7542624Y-14235606D01*
X7552148Y-14197511D01*
X7561672Y-14178464D01*
X7571196Y-14168940D01*
X7590243Y-14159416D01*
X7723577Y-14159416D02*
X7847386Y-14159416D01*
X7780720Y-14235606D01*
X7809291Y-14235606D01*
X7828339Y-14245130D01*
X7837862Y-14254654D01*
X7847386Y-14273702D01*
X7847386Y-14321321D01*
X7837862Y-14340368D01*
X7828339Y-14349892D01*
X7809291Y-14359416D01*
X7752148Y-14359416D01*
X7733101Y-14349892D01*
X7723577Y-14340368D01*
X7942624Y-14359416D02*
X7980720Y-14359416D01*
X7999767Y-14349892D01*
X8009291Y-14340368D01*
X8028339Y-14311797D01*
X8037862Y-14273702D01*
X8037862Y-14197511D01*
X8028339Y-14178464D01*
X8018815Y-14168940D01*
X7999767Y-14159416D01*
X7961672Y-14159416D01*
X7942624Y-14168940D01*
X7933101Y-14178464D01*
X7923577Y-14197511D01*
X7923577Y-14245130D01*
X7933101Y-14264178D01*
X7942624Y-14273702D01*
X7961672Y-14283225D01*
X7999767Y-14283225D01*
X8018815Y-14273702D01*
X8028339Y-14264178D01*
X8037862Y-14245130D01*
X8209291Y-14226083D02*
X8209291Y-14359416D01*
X8161672Y-14149892D02*
X8114053Y-14292749D01*
X8237862Y-14292749D01*
X8304529Y-14159416D02*
X8304529Y-14197511D01*
X8380720Y-14159416D02*
X8380720Y-14197511D01*
X8675958Y-14435606D02*
X8666434Y-14426083D01*
X8647386Y-14397511D01*
X8637863Y-14378464D01*
X8628339Y-14349892D01*
X8618815Y-14302273D01*
X8618815Y-14264178D01*
X8628339Y-14216559D01*
X8637863Y-14187987D01*
X8647386Y-14168940D01*
X8666434Y-14140368D01*
X8675958Y-14130844D01*
X8733101Y-14159416D02*
X8856910Y-14159416D01*
X8790243Y-14235606D01*
X8818815Y-14235606D01*
X8837863Y-14245130D01*
X8847386Y-14254654D01*
X8856910Y-14273702D01*
X8856910Y-14321321D01*
X8847386Y-14340368D01*
X8837863Y-14349892D01*
X8818815Y-14359416D01*
X8761672Y-14359416D01*
X8742624Y-14349892D01*
X8733101Y-14340368D01*
X8980720Y-14159416D02*
X8999767Y-14159416D01*
X9018815Y-14168940D01*
X9028339Y-14178464D01*
X9037863Y-14197511D01*
X9047386Y-14235606D01*
X9047386Y-14283225D01*
X9037863Y-14321321D01*
X9028339Y-14340368D01*
X9018815Y-14349892D01*
X8999767Y-14359416D01*
X8980720Y-14359416D01*
X8961672Y-14349892D01*
X8952148Y-14340368D01*
X8942624Y-14321321D01*
X8933101Y-14283225D01*
X8933101Y-14235606D01*
X8942624Y-14197511D01*
X8952148Y-14178464D01*
X8961672Y-14168940D01*
X8980720Y-14159416D01*
X9285482Y-14359416D02*
X9285482Y-14159416D01*
X9371196Y-14359416D02*
X9371196Y-14254654D01*
X9361672Y-14235606D01*
X9342624Y-14226083D01*
X9314053Y-14226083D01*
X9295005Y-14235606D01*
X9285482Y-14245130D01*
X9495005Y-14359416D02*
X9475958Y-14349892D01*
X9466434Y-14340368D01*
X9456910Y-14321321D01*
X9456910Y-14264178D01*
X9466434Y-14245130D01*
X9475958Y-14235606D01*
X9495005Y-14226083D01*
X9523577Y-14226083D01*
X9542624Y-14235606D01*
X9552148Y-14245130D01*
X9561672Y-14264178D01*
X9561672Y-14321321D01*
X9552148Y-14340368D01*
X9542624Y-14349892D01*
X9523577Y-14359416D01*
X9495005Y-14359416D01*
X9675958Y-14359416D02*
X9656910Y-14349892D01*
X9647386Y-14330844D01*
X9647386Y-14159416D01*
X9828339Y-14349892D02*
X9809291Y-14359416D01*
X9771196Y-14359416D01*
X9752148Y-14349892D01*
X9742624Y-14330844D01*
X9742624Y-14254654D01*
X9752148Y-14235606D01*
X9771196Y-14226083D01*
X9809291Y-14226083D01*
X9828339Y-14235606D01*
X9837863Y-14254654D01*
X9837863Y-14273702D01*
X9742624Y-14292749D01*
X9914053Y-14349892D02*
X9933101Y-14359416D01*
X9971196Y-14359416D01*
X9990243Y-14349892D01*
X9999767Y-14330844D01*
X9999767Y-14321321D01*
X9990243Y-14302273D01*
X9971196Y-14292749D01*
X9942624Y-14292749D01*
X9923577Y-14283225D01*
X9914053Y-14264178D01*
X9914053Y-14254654D01*
X9923577Y-14235606D01*
X9942624Y-14226083D01*
X9971196Y-14226083D01*
X9990243Y-14235606D01*
X10066434Y-14435606D02*
X10075958Y-14426083D01*
X10095005Y-14397511D01*
X10104529Y-14378464D01*
X10114053Y-14349892D01*
X10123577Y-14302273D01*
X10123577Y-14264178D01*
X10114053Y-14216559D01*
X10104529Y-14187987D01*
X10095005Y-14168940D01*
X10075958Y-14140368D01*
X10066434Y-14130844D01*
D13*
X5024053Y-14452940D02*
X5024053Y-14612940D01*
X4944053Y-14532940D02*
X5104053Y-14532940D01*
D11*
X5466434Y-14623416D02*
X5352148Y-14623416D01*
X5409291Y-14623416D02*
X5409291Y-14423416D01*
X5390243Y-14451987D01*
X5371196Y-14471035D01*
X5352148Y-14480559D01*
X5552148Y-14604368D02*
X5561672Y-14613892D01*
X5552148Y-14623416D01*
X5542624Y-14613892D01*
X5552148Y-14604368D01*
X5552148Y-14623416D01*
X5733101Y-14423416D02*
X5695005Y-14423416D01*
X5675958Y-14432940D01*
X5666434Y-14442464D01*
X5647386Y-14471035D01*
X5637862Y-14509130D01*
X5637862Y-14585321D01*
X5647386Y-14604368D01*
X5656910Y-14613892D01*
X5675958Y-14623416D01*
X5714053Y-14623416D01*
X5733101Y-14613892D01*
X5742624Y-14604368D01*
X5752148Y-14585321D01*
X5752148Y-14537702D01*
X5742624Y-14518654D01*
X5733101Y-14509130D01*
X5714053Y-14499606D01*
X5675958Y-14499606D01*
X5656910Y-14509130D01*
X5647386Y-14518654D01*
X5637862Y-14537702D01*
X5875958Y-14423416D02*
X5895005Y-14423416D01*
X5914053Y-14432940D01*
X5923577Y-14442464D01*
X5933101Y-14461511D01*
X5942624Y-14499606D01*
X5942624Y-14547225D01*
X5933101Y-14585321D01*
X5923577Y-14604368D01*
X5914053Y-14613892D01*
X5895005Y-14623416D01*
X5875958Y-14623416D01*
X5856910Y-14613892D01*
X5847386Y-14604368D01*
X5837862Y-14585321D01*
X5828339Y-14547225D01*
X5828339Y-14499606D01*
X5837862Y-14461511D01*
X5847386Y-14442464D01*
X5856910Y-14432940D01*
X5875958Y-14423416D01*
X6066434Y-14423416D02*
X6085481Y-14423416D01*
X6104529Y-14432940D01*
X6114053Y-14442464D01*
X6123577Y-14461511D01*
X6133101Y-14499606D01*
X6133101Y-14547225D01*
X6123577Y-14585321D01*
X6114053Y-14604368D01*
X6104529Y-14613892D01*
X6085481Y-14623416D01*
X6066434Y-14623416D01*
X6047386Y-14613892D01*
X6037862Y-14604368D01*
X6028339Y-14585321D01*
X6018815Y-14547225D01*
X6018815Y-14499606D01*
X6028339Y-14461511D01*
X6037862Y-14442464D01*
X6047386Y-14432940D01*
X6066434Y-14423416D01*
X6218815Y-14623416D02*
X6218815Y-14490083D01*
X6218815Y-14509130D02*
X6228339Y-14499606D01*
X6247386Y-14490083D01*
X6275958Y-14490083D01*
X6295005Y-14499606D01*
X6304529Y-14518654D01*
X6304529Y-14623416D01*
X6304529Y-14518654D02*
X6314053Y-14499606D01*
X6333101Y-14490083D01*
X6361672Y-14490083D01*
X6380720Y-14499606D01*
X6390243Y-14518654D01*
X6390243Y-14623416D01*
X6485481Y-14623416D02*
X6485481Y-14490083D01*
X6485481Y-14509130D02*
X6495005Y-14499606D01*
X6514053Y-14490083D01*
X6542624Y-14490083D01*
X6561672Y-14499606D01*
X6571196Y-14518654D01*
X6571196Y-14623416D01*
X6571196Y-14518654D02*
X6580720Y-14499606D01*
X6599767Y-14490083D01*
X6628339Y-14490083D01*
X6647386Y-14499606D01*
X6656910Y-14518654D01*
X6656910Y-14623416D01*
X7047386Y-14413892D02*
X6875958Y-14671035D01*
X7304529Y-14423416D02*
X7323577Y-14423416D01*
X7342624Y-14432940D01*
X7352148Y-14442464D01*
X7361672Y-14461511D01*
X7371196Y-14499606D01*
X7371196Y-14547225D01*
X7361672Y-14585321D01*
X7352148Y-14604368D01*
X7342624Y-14613892D01*
X7323577Y-14623416D01*
X7304529Y-14623416D01*
X7285481Y-14613892D01*
X7275958Y-14604368D01*
X7266434Y-14585321D01*
X7256910Y-14547225D01*
X7256910Y-14499606D01*
X7266434Y-14461511D01*
X7275958Y-14442464D01*
X7285481Y-14432940D01*
X7304529Y-14423416D01*
X7456910Y-14604368D02*
X7466434Y-14613892D01*
X7456910Y-14623416D01*
X7447386Y-14613892D01*
X7456910Y-14604368D01*
X7456910Y-14623416D01*
X7590243Y-14423416D02*
X7609291Y-14423416D01*
X7628339Y-14432940D01*
X7637862Y-14442464D01*
X7647386Y-14461511D01*
X7656910Y-14499606D01*
X7656910Y-14547225D01*
X7647386Y-14585321D01*
X7637862Y-14604368D01*
X7628339Y-14613892D01*
X7609291Y-14623416D01*
X7590243Y-14623416D01*
X7571196Y-14613892D01*
X7561672Y-14604368D01*
X7552148Y-14585321D01*
X7542624Y-14547225D01*
X7542624Y-14499606D01*
X7552148Y-14461511D01*
X7561672Y-14442464D01*
X7571196Y-14432940D01*
X7590243Y-14423416D01*
X7828339Y-14423416D02*
X7790243Y-14423416D01*
X7771196Y-14432940D01*
X7761672Y-14442464D01*
X7742624Y-14471035D01*
X7733101Y-14509130D01*
X7733101Y-14585321D01*
X7742624Y-14604368D01*
X7752148Y-14613892D01*
X7771196Y-14623416D01*
X7809291Y-14623416D01*
X7828339Y-14613892D01*
X7837862Y-14604368D01*
X7847386Y-14585321D01*
X7847386Y-14537702D01*
X7837862Y-14518654D01*
X7828339Y-14509130D01*
X7809291Y-14499606D01*
X7771196Y-14499606D01*
X7752148Y-14509130D01*
X7742624Y-14518654D01*
X7733101Y-14537702D01*
X7914053Y-14423416D02*
X8037862Y-14423416D01*
X7971196Y-14499606D01*
X7999767Y-14499606D01*
X8018815Y-14509130D01*
X8028339Y-14518654D01*
X8037862Y-14537702D01*
X8037862Y-14585321D01*
X8028339Y-14604368D01*
X8018815Y-14613892D01*
X7999767Y-14623416D01*
X7942624Y-14623416D01*
X7923577Y-14613892D01*
X7914053Y-14604368D01*
X8161672Y-14423416D02*
X8180720Y-14423416D01*
X8199767Y-14432940D01*
X8209291Y-14442464D01*
X8218815Y-14461511D01*
X8228339Y-14499606D01*
X8228339Y-14547225D01*
X8218815Y-14585321D01*
X8209291Y-14604368D01*
X8199767Y-14613892D01*
X8180720Y-14623416D01*
X8161672Y-14623416D01*
X8142624Y-14613892D01*
X8133101Y-14604368D01*
X8123577Y-14585321D01*
X8114053Y-14547225D01*
X8114053Y-14499606D01*
X8123577Y-14461511D01*
X8133101Y-14442464D01*
X8142624Y-14432940D01*
X8161672Y-14423416D01*
X8304529Y-14423416D02*
X8304529Y-14461511D01*
X8380720Y-14423416D02*
X8380720Y-14461511D01*
X8675958Y-14699606D02*
X8666434Y-14690083D01*
X8647386Y-14661511D01*
X8637863Y-14642464D01*
X8628339Y-14613892D01*
X8618815Y-14566273D01*
X8618815Y-14528178D01*
X8628339Y-14480559D01*
X8637863Y-14451987D01*
X8647386Y-14432940D01*
X8666434Y-14404368D01*
X8675958Y-14394844D01*
X8742624Y-14442464D02*
X8752148Y-14432940D01*
X8771196Y-14423416D01*
X8818815Y-14423416D01*
X8837863Y-14432940D01*
X8847386Y-14442464D01*
X8856910Y-14461511D01*
X8856910Y-14480559D01*
X8847386Y-14509130D01*
X8733101Y-14623416D01*
X8856910Y-14623416D01*
X9095005Y-14623416D02*
X9095005Y-14423416D01*
X9180720Y-14623416D02*
X9180720Y-14518654D01*
X9171196Y-14499606D01*
X9152148Y-14490083D01*
X9123577Y-14490083D01*
X9104529Y-14499606D01*
X9095005Y-14509130D01*
X9304529Y-14623416D02*
X9285482Y-14613892D01*
X9275958Y-14604368D01*
X9266434Y-14585321D01*
X9266434Y-14528178D01*
X9275958Y-14509130D01*
X9285482Y-14499606D01*
X9304529Y-14490083D01*
X9333101Y-14490083D01*
X9352148Y-14499606D01*
X9361672Y-14509130D01*
X9371196Y-14528178D01*
X9371196Y-14585321D01*
X9361672Y-14604368D01*
X9352148Y-14613892D01*
X9333101Y-14623416D01*
X9304529Y-14623416D01*
X9485482Y-14623416D02*
X9466434Y-14613892D01*
X9456910Y-14594844D01*
X9456910Y-14423416D01*
X9637863Y-14613892D02*
X9618815Y-14623416D01*
X9580720Y-14623416D01*
X9561672Y-14613892D01*
X9552148Y-14594844D01*
X9552148Y-14518654D01*
X9561672Y-14499606D01*
X9580720Y-14490083D01*
X9618815Y-14490083D01*
X9637863Y-14499606D01*
X9647386Y-14518654D01*
X9647386Y-14537702D01*
X9552148Y-14556749D01*
X9723577Y-14613892D02*
X9742624Y-14623416D01*
X9780720Y-14623416D01*
X9799767Y-14613892D01*
X9809291Y-14594844D01*
X9809291Y-14585321D01*
X9799767Y-14566273D01*
X9780720Y-14556749D01*
X9752148Y-14556749D01*
X9733101Y-14547225D01*
X9723577Y-14528178D01*
X9723577Y-14518654D01*
X9733101Y-14499606D01*
X9752148Y-14490083D01*
X9780720Y-14490083D01*
X9799767Y-14499606D01*
X9875958Y-14699606D02*
X9885482Y-14690083D01*
X9904529Y-14661511D01*
X9914053Y-14642464D01*
X9923577Y-14613892D01*
X9933101Y-14566273D01*
X9933101Y-14528178D01*
X9923577Y-14480559D01*
X9914053Y-14451987D01*
X9904529Y-14432940D01*
X9885482Y-14404368D01*
X9875958Y-14394844D01*
D14*
X5079158Y-14873044D02*
X5079158Y-14752835D01*
X4958948Y-14752835D01*
X4958948Y-14873044D01*
X5079158Y-14873044D01*
D11*
X5466434Y-14903416D02*
X5352148Y-14903416D01*
X5409291Y-14903416D02*
X5409291Y-14703416D01*
X5390243Y-14731987D01*
X5371196Y-14751035D01*
X5352148Y-14760559D01*
X5552148Y-14884368D02*
X5561672Y-14893892D01*
X5552148Y-14903416D01*
X5542624Y-14893892D01*
X5552148Y-14884368D01*
X5552148Y-14903416D01*
X5628339Y-14703416D02*
X5761672Y-14703416D01*
X5675958Y-14903416D01*
X5875958Y-14703416D02*
X5895005Y-14703416D01*
X5914053Y-14712940D01*
X5923577Y-14722464D01*
X5933101Y-14741511D01*
X5942624Y-14779606D01*
X5942624Y-14827225D01*
X5933101Y-14865321D01*
X5923577Y-14884368D01*
X5914053Y-14893892D01*
X5895005Y-14903416D01*
X5875958Y-14903416D01*
X5856910Y-14893892D01*
X5847386Y-14884368D01*
X5837862Y-14865321D01*
X5828339Y-14827225D01*
X5828339Y-14779606D01*
X5837862Y-14741511D01*
X5847386Y-14722464D01*
X5856910Y-14712940D01*
X5875958Y-14703416D01*
X6066434Y-14703416D02*
X6085481Y-14703416D01*
X6104529Y-14712940D01*
X6114053Y-14722464D01*
X6123577Y-14741511D01*
X6133101Y-14779606D01*
X6133101Y-14827225D01*
X6123577Y-14865321D01*
X6114053Y-14884368D01*
X6104529Y-14893892D01*
X6085481Y-14903416D01*
X6066434Y-14903416D01*
X6047386Y-14893892D01*
X6037862Y-14884368D01*
X6028339Y-14865321D01*
X6018815Y-14827225D01*
X6018815Y-14779606D01*
X6028339Y-14741511D01*
X6037862Y-14722464D01*
X6047386Y-14712940D01*
X6066434Y-14703416D01*
X6218815Y-14903416D02*
X6218815Y-14770083D01*
X6218815Y-14789130D02*
X6228339Y-14779606D01*
X6247386Y-14770083D01*
X6275958Y-14770083D01*
X6295005Y-14779606D01*
X6304529Y-14798654D01*
X6304529Y-14903416D01*
X6304529Y-14798654D02*
X6314053Y-14779606D01*
X6333101Y-14770083D01*
X6361672Y-14770083D01*
X6380720Y-14779606D01*
X6390243Y-14798654D01*
X6390243Y-14903416D01*
X6485481Y-14903416D02*
X6485481Y-14770083D01*
X6485481Y-14789130D02*
X6495005Y-14779606D01*
X6514053Y-14770083D01*
X6542624Y-14770083D01*
X6561672Y-14779606D01*
X6571196Y-14798654D01*
X6571196Y-14903416D01*
X6571196Y-14798654D02*
X6580720Y-14779606D01*
X6599767Y-14770083D01*
X6628339Y-14770083D01*
X6647386Y-14779606D01*
X6656910Y-14798654D01*
X6656910Y-14903416D01*
X7047386Y-14693892D02*
X6875958Y-14951035D01*
X7304529Y-14703416D02*
X7323577Y-14703416D01*
X7342624Y-14712940D01*
X7352148Y-14722464D01*
X7361672Y-14741511D01*
X7371196Y-14779606D01*
X7371196Y-14827225D01*
X7361672Y-14865321D01*
X7352148Y-14884368D01*
X7342624Y-14893892D01*
X7323577Y-14903416D01*
X7304529Y-14903416D01*
X7285481Y-14893892D01*
X7275958Y-14884368D01*
X7266434Y-14865321D01*
X7256910Y-14827225D01*
X7256910Y-14779606D01*
X7266434Y-14741511D01*
X7275958Y-14722464D01*
X7285481Y-14712940D01*
X7304529Y-14703416D01*
X7456910Y-14884368D02*
X7466434Y-14893892D01*
X7456910Y-14903416D01*
X7447386Y-14893892D01*
X7456910Y-14884368D01*
X7456910Y-14903416D01*
X7590243Y-14703416D02*
X7609291Y-14703416D01*
X7628339Y-14712940D01*
X7637862Y-14722464D01*
X7647386Y-14741511D01*
X7656910Y-14779606D01*
X7656910Y-14827225D01*
X7647386Y-14865321D01*
X7637862Y-14884368D01*
X7628339Y-14893892D01*
X7609291Y-14903416D01*
X7590243Y-14903416D01*
X7571196Y-14893892D01*
X7561672Y-14884368D01*
X7552148Y-14865321D01*
X7542624Y-14827225D01*
X7542624Y-14779606D01*
X7552148Y-14741511D01*
X7561672Y-14722464D01*
X7571196Y-14712940D01*
X7590243Y-14703416D01*
X7828339Y-14703416D02*
X7790243Y-14703416D01*
X7771196Y-14712940D01*
X7761672Y-14722464D01*
X7742624Y-14751035D01*
X7733101Y-14789130D01*
X7733101Y-14865321D01*
X7742624Y-14884368D01*
X7752148Y-14893892D01*
X7771196Y-14903416D01*
X7809291Y-14903416D01*
X7828339Y-14893892D01*
X7837862Y-14884368D01*
X7847386Y-14865321D01*
X7847386Y-14817702D01*
X7837862Y-14798654D01*
X7828339Y-14789130D01*
X7809291Y-14779606D01*
X7771196Y-14779606D01*
X7752148Y-14789130D01*
X7742624Y-14798654D01*
X7733101Y-14817702D01*
X8018815Y-14703416D02*
X7980720Y-14703416D01*
X7961672Y-14712940D01*
X7952148Y-14722464D01*
X7933101Y-14751035D01*
X7923577Y-14789130D01*
X7923577Y-14865321D01*
X7933101Y-14884368D01*
X7942624Y-14893892D01*
X7961672Y-14903416D01*
X7999767Y-14903416D01*
X8018815Y-14893892D01*
X8028339Y-14884368D01*
X8037862Y-14865321D01*
X8037862Y-14817702D01*
X8028339Y-14798654D01*
X8018815Y-14789130D01*
X7999767Y-14779606D01*
X7961672Y-14779606D01*
X7942624Y-14789130D01*
X7933101Y-14798654D01*
X7923577Y-14817702D01*
X8133101Y-14903416D02*
X8171196Y-14903416D01*
X8190243Y-14893892D01*
X8199767Y-14884368D01*
X8218815Y-14855797D01*
X8228339Y-14817702D01*
X8228339Y-14741511D01*
X8218815Y-14722464D01*
X8209291Y-14712940D01*
X8190243Y-14703416D01*
X8152148Y-14703416D01*
X8133101Y-14712940D01*
X8123577Y-14722464D01*
X8114053Y-14741511D01*
X8114053Y-14789130D01*
X8123577Y-14808178D01*
X8133101Y-14817702D01*
X8152148Y-14827225D01*
X8190243Y-14827225D01*
X8209291Y-14817702D01*
X8218815Y-14808178D01*
X8228339Y-14789130D01*
X8304529Y-14703416D02*
X8304529Y-14741511D01*
X8380720Y-14703416D02*
X8380720Y-14741511D01*
X8675958Y-14979606D02*
X8666434Y-14970083D01*
X8647386Y-14941511D01*
X8637863Y-14922464D01*
X8628339Y-14893892D01*
X8618815Y-14846273D01*
X8618815Y-14808178D01*
X8628339Y-14760559D01*
X8637863Y-14731987D01*
X8647386Y-14712940D01*
X8666434Y-14684368D01*
X8675958Y-14674844D01*
X8856910Y-14903416D02*
X8742624Y-14903416D01*
X8799767Y-14903416D02*
X8799767Y-14703416D01*
X8780720Y-14731987D01*
X8761672Y-14751035D01*
X8742624Y-14760559D01*
X9095005Y-14903416D02*
X9095005Y-14703416D01*
X9180720Y-14903416D02*
X9180720Y-14798654D01*
X9171196Y-14779606D01*
X9152148Y-14770083D01*
X9123577Y-14770083D01*
X9104529Y-14779606D01*
X9095005Y-14789130D01*
X9304529Y-14903416D02*
X9285482Y-14893892D01*
X9275958Y-14884368D01*
X9266434Y-14865321D01*
X9266434Y-14808178D01*
X9275958Y-14789130D01*
X9285482Y-14779606D01*
X9304529Y-14770083D01*
X9333101Y-14770083D01*
X9352148Y-14779606D01*
X9361672Y-14789130D01*
X9371196Y-14808178D01*
X9371196Y-14865321D01*
X9361672Y-14884368D01*
X9352148Y-14893892D01*
X9333101Y-14903416D01*
X9304529Y-14903416D01*
X9485482Y-14903416D02*
X9466434Y-14893892D01*
X9456910Y-14874844D01*
X9456910Y-14703416D01*
X9637863Y-14893892D02*
X9618815Y-14903416D01*
X9580720Y-14903416D01*
X9561672Y-14893892D01*
X9552148Y-14874844D01*
X9552148Y-14798654D01*
X9561672Y-14779606D01*
X9580720Y-14770083D01*
X9618815Y-14770083D01*
X9637863Y-14779606D01*
X9647386Y-14798654D01*
X9647386Y-14817702D01*
X9552148Y-14836749D01*
X9714053Y-14979606D02*
X9723577Y-14970083D01*
X9742624Y-14941511D01*
X9752148Y-14922464D01*
X9761672Y-14893892D01*
X9771196Y-14846273D01*
X9771196Y-14808178D01*
X9761672Y-14760559D01*
X9752148Y-14731987D01*
X9742624Y-14712940D01*
X9723577Y-14684368D01*
X9714053Y-14674844D01*
X5004053Y-15202940D02*
X5104053Y-15102940D01*
X5004053Y-15002940D01*
X4904053Y-15102940D01*
X5004053Y-15202940D01*
X5352148Y-15012464D02*
X5361672Y-15002940D01*
X5380720Y-14993416D01*
X5428339Y-14993416D01*
X5447386Y-15002940D01*
X5456910Y-15012464D01*
X5466434Y-15031511D01*
X5466434Y-15050559D01*
X5456910Y-15079130D01*
X5342624Y-15193416D01*
X5466434Y-15193416D01*
X5552148Y-15174368D02*
X5561672Y-15183892D01*
X5552148Y-15193416D01*
X5542624Y-15183892D01*
X5552148Y-15174368D01*
X5552148Y-15193416D01*
X5752148Y-15193416D02*
X5637862Y-15193416D01*
X5695005Y-15193416D02*
X5695005Y-14993416D01*
X5675958Y-15021987D01*
X5656910Y-15041035D01*
X5637862Y-15050559D01*
X5933101Y-14993416D02*
X5837862Y-14993416D01*
X5828339Y-15088654D01*
X5837862Y-15079130D01*
X5856910Y-15069606D01*
X5904529Y-15069606D01*
X5923577Y-15079130D01*
X5933101Y-15088654D01*
X5942624Y-15107702D01*
X5942624Y-15155321D01*
X5933101Y-15174368D01*
X5923577Y-15183892D01*
X5904529Y-15193416D01*
X5856910Y-15193416D01*
X5837862Y-15183892D01*
X5828339Y-15174368D01*
X6066434Y-14993416D02*
X6085481Y-14993416D01*
X6104529Y-15002940D01*
X6114053Y-15012464D01*
X6123577Y-15031511D01*
X6133101Y-15069606D01*
X6133101Y-15117225D01*
X6123577Y-15155321D01*
X6114053Y-15174368D01*
X6104529Y-15183892D01*
X6085481Y-15193416D01*
X6066434Y-15193416D01*
X6047386Y-15183892D01*
X6037862Y-15174368D01*
X6028339Y-15155321D01*
X6018815Y-15117225D01*
X6018815Y-15069606D01*
X6028339Y-15031511D01*
X6037862Y-15012464D01*
X6047386Y-15002940D01*
X6066434Y-14993416D01*
X6218815Y-15193416D02*
X6218815Y-15060083D01*
X6218815Y-15079130D02*
X6228339Y-15069606D01*
X6247386Y-15060083D01*
X6275958Y-15060083D01*
X6295005Y-15069606D01*
X6304529Y-15088654D01*
X6304529Y-15193416D01*
X6304529Y-15088654D02*
X6314053Y-15069606D01*
X6333101Y-15060083D01*
X6361672Y-15060083D01*
X6380720Y-15069606D01*
X6390243Y-15088654D01*
X6390243Y-15193416D01*
X6485481Y-15193416D02*
X6485481Y-15060083D01*
X6485481Y-15079130D02*
X6495005Y-15069606D01*
X6514053Y-15060083D01*
X6542624Y-15060083D01*
X6561672Y-15069606D01*
X6571196Y-15088654D01*
X6571196Y-15193416D01*
X6571196Y-15088654D02*
X6580720Y-15069606D01*
X6599767Y-15060083D01*
X6628339Y-15060083D01*
X6647386Y-15069606D01*
X6656910Y-15088654D01*
X6656910Y-15193416D01*
X7047386Y-14983892D02*
X6875958Y-15241035D01*
X7304529Y-14993416D02*
X7323577Y-14993416D01*
X7342624Y-15002940D01*
X7352148Y-15012464D01*
X7361672Y-15031511D01*
X7371196Y-15069606D01*
X7371196Y-15117225D01*
X7361672Y-15155321D01*
X7352148Y-15174368D01*
X7342624Y-15183892D01*
X7323577Y-15193416D01*
X7304529Y-15193416D01*
X7285481Y-15183892D01*
X7275958Y-15174368D01*
X7266434Y-15155321D01*
X7256910Y-15117225D01*
X7256910Y-15069606D01*
X7266434Y-15031511D01*
X7275958Y-15012464D01*
X7285481Y-15002940D01*
X7304529Y-14993416D01*
X7456910Y-15174368D02*
X7466434Y-15183892D01*
X7456910Y-15193416D01*
X7447386Y-15183892D01*
X7456910Y-15174368D01*
X7456910Y-15193416D01*
X7590243Y-14993416D02*
X7609291Y-14993416D01*
X7628339Y-15002940D01*
X7637862Y-15012464D01*
X7647386Y-15031511D01*
X7656910Y-15069606D01*
X7656910Y-15117225D01*
X7647386Y-15155321D01*
X7637862Y-15174368D01*
X7628339Y-15183892D01*
X7609291Y-15193416D01*
X7590243Y-15193416D01*
X7571196Y-15183892D01*
X7561672Y-15174368D01*
X7552148Y-15155321D01*
X7542624Y-15117225D01*
X7542624Y-15069606D01*
X7552148Y-15031511D01*
X7561672Y-15012464D01*
X7571196Y-15002940D01*
X7590243Y-14993416D01*
X7771196Y-15079130D02*
X7752148Y-15069606D01*
X7742624Y-15060083D01*
X7733101Y-15041035D01*
X7733101Y-15031511D01*
X7742624Y-15012464D01*
X7752148Y-15002940D01*
X7771196Y-14993416D01*
X7809291Y-14993416D01*
X7828339Y-15002940D01*
X7837862Y-15012464D01*
X7847386Y-15031511D01*
X7847386Y-15041035D01*
X7837862Y-15060083D01*
X7828339Y-15069606D01*
X7809291Y-15079130D01*
X7771196Y-15079130D01*
X7752148Y-15088654D01*
X7742624Y-15098178D01*
X7733101Y-15117225D01*
X7733101Y-15155321D01*
X7742624Y-15174368D01*
X7752148Y-15183892D01*
X7771196Y-15193416D01*
X7809291Y-15193416D01*
X7828339Y-15183892D01*
X7837862Y-15174368D01*
X7847386Y-15155321D01*
X7847386Y-15117225D01*
X7837862Y-15098178D01*
X7828339Y-15088654D01*
X7809291Y-15079130D01*
X8018815Y-15060083D02*
X8018815Y-15193416D01*
X7971196Y-14983892D02*
X7923577Y-15126749D01*
X8047386Y-15126749D01*
X8209291Y-14993416D02*
X8171196Y-14993416D01*
X8152148Y-15002940D01*
X8142624Y-15012464D01*
X8123577Y-15041035D01*
X8114053Y-15079130D01*
X8114053Y-15155321D01*
X8123577Y-15174368D01*
X8133101Y-15183892D01*
X8152148Y-15193416D01*
X8190243Y-15193416D01*
X8209291Y-15183892D01*
X8218815Y-15174368D01*
X8228339Y-15155321D01*
X8228339Y-15107702D01*
X8218815Y-15088654D01*
X8209291Y-15079130D01*
X8190243Y-15069606D01*
X8152148Y-15069606D01*
X8133101Y-15079130D01*
X8123577Y-15088654D01*
X8114053Y-15107702D01*
X8304529Y-14993416D02*
X8304529Y-15031511D01*
X8380720Y-14993416D02*
X8380720Y-15031511D01*
X8675958Y-15269606D02*
X8666434Y-15260083D01*
X8647386Y-15231511D01*
X8637863Y-15212464D01*
X8628339Y-15183892D01*
X8618815Y-15136273D01*
X8618815Y-15098178D01*
X8628339Y-15050559D01*
X8637863Y-15021987D01*
X8647386Y-15002940D01*
X8666434Y-14974368D01*
X8675958Y-14964844D01*
X8742624Y-15012464D02*
X8752148Y-15002940D01*
X8771196Y-14993416D01*
X8818815Y-14993416D01*
X8837863Y-15002940D01*
X8847386Y-15012464D01*
X8856910Y-15031511D01*
X8856910Y-15050559D01*
X8847386Y-15079130D01*
X8733101Y-15193416D01*
X8856910Y-15193416D01*
X9095005Y-15193416D02*
X9095005Y-14993416D01*
X9180720Y-15193416D02*
X9180720Y-15088654D01*
X9171196Y-15069606D01*
X9152148Y-15060083D01*
X9123577Y-15060083D01*
X9104529Y-15069606D01*
X9095005Y-15079130D01*
X9304529Y-15193416D02*
X9285482Y-15183892D01*
X9275958Y-15174368D01*
X9266434Y-15155321D01*
X9266434Y-15098178D01*
X9275958Y-15079130D01*
X9285482Y-15069606D01*
X9304529Y-15060083D01*
X9333101Y-15060083D01*
X9352148Y-15069606D01*
X9361672Y-15079130D01*
X9371196Y-15098178D01*
X9371196Y-15155321D01*
X9361672Y-15174368D01*
X9352148Y-15183892D01*
X9333101Y-15193416D01*
X9304529Y-15193416D01*
X9485482Y-15193416D02*
X9466434Y-15183892D01*
X9456910Y-15164844D01*
X9456910Y-14993416D01*
X9637863Y-15183892D02*
X9618815Y-15193416D01*
X9580720Y-15193416D01*
X9561672Y-15183892D01*
X9552148Y-15164844D01*
X9552148Y-15088654D01*
X9561672Y-15069606D01*
X9580720Y-15060083D01*
X9618815Y-15060083D01*
X9637863Y-15069606D01*
X9647386Y-15088654D01*
X9647386Y-15107702D01*
X9552148Y-15126749D01*
X9723577Y-15183892D02*
X9742624Y-15193416D01*
X9780720Y-15193416D01*
X9799767Y-15183892D01*
X9809291Y-15164844D01*
X9809291Y-15155321D01*
X9799767Y-15136273D01*
X9780720Y-15126749D01*
X9752148Y-15126749D01*
X9733101Y-15117225D01*
X9723577Y-15098178D01*
X9723577Y-15088654D01*
X9733101Y-15069606D01*
X9752148Y-15060083D01*
X9780720Y-15060083D01*
X9799767Y-15069606D01*
X9875958Y-15269606D02*
X9885482Y-15260083D01*
X9904529Y-15231511D01*
X9914053Y-15212464D01*
X9923577Y-15183892D01*
X9933101Y-15136273D01*
X9933101Y-15098178D01*
X9923577Y-15050559D01*
X9914053Y-15021987D01*
X9904529Y-15002940D01*
X9885482Y-14974368D01*
X9875958Y-14964844D01*
M02*
