%TF.GenerationSoftware,KiCad,Pcbnew,(6.0.8)*%
%TF.CreationDate,2022-12-02T10:37:27+07:00*%
%TF.ProjectId,espot_mainboard,6573706f-745f-46d6-9169-6e626f617264,rev?*%
%TF.SameCoordinates,Original*%
%TF.FileFunction,Soldermask,Bot*%
%TF.FilePolarity,Negative*%
%FSLAX46Y46*%
G04 Gerber Fmt 4.6, Leading zero omitted, Abs format (unit mm)*
G04 Created by KiCad (PCBNEW (6.0.8)) date 2022-12-02 10:37:27*
%MOMM*%
%LPD*%
G01*
G04 APERTURE LIST*
G04 Aperture macros list*
%AMRoundRect*
0 Rectangle with rounded corners*
0 $1 Rounding radius*
0 $2 $3 $4 $5 $6 $7 $8 $9 X,Y pos of 4 corners*
0 Add a 4 corners polygon primitive as box body*
4,1,4,$2,$3,$4,$5,$6,$7,$8,$9,$2,$3,0*
0 Add four circle primitives for the rounded corners*
1,1,$1+$1,$2,$3*
1,1,$1+$1,$4,$5*
1,1,$1+$1,$6,$7*
1,1,$1+$1,$8,$9*
0 Add four rect primitives between the rounded corners*
20,1,$1+$1,$2,$3,$4,$5,0*
20,1,$1+$1,$4,$5,$6,$7,0*
20,1,$1+$1,$6,$7,$8,$9,0*
20,1,$1+$1,$8,$9,$2,$3,0*%
G04 Aperture macros list end*
%ADD10C,0.700000*%
%ADD11C,2.550000*%
%ADD12C,3.225000*%
%ADD13C,0.800000*%
%ADD14R,1.700000X1.700000*%
%ADD15O,1.700000X1.700000*%
%ADD16RoundRect,0.237500X-0.300000X-0.237500X0.300000X-0.237500X0.300000X0.237500X-0.300000X0.237500X0*%
%ADD17RoundRect,0.237500X0.300000X0.237500X-0.300000X0.237500X-0.300000X-0.237500X0.300000X-0.237500X0*%
%ADD18RoundRect,0.237500X0.237500X-0.287500X0.237500X0.287500X-0.237500X0.287500X-0.237500X-0.287500X0*%
%ADD19RoundRect,0.237500X0.287500X0.237500X-0.287500X0.237500X-0.287500X-0.237500X0.287500X-0.237500X0*%
%ADD20RoundRect,0.237500X-0.237500X0.300000X-0.237500X-0.300000X0.237500X-0.300000X0.237500X0.300000X0*%
%ADD21RoundRect,0.237500X-0.250000X-0.237500X0.250000X-0.237500X0.250000X0.237500X-0.250000X0.237500X0*%
%ADD22RoundRect,0.237500X-0.237500X0.250000X-0.237500X-0.250000X0.237500X-0.250000X0.237500X0.250000X0*%
%ADD23C,4.000000*%
%ADD24R,1.200000X0.900000*%
%ADD25RoundRect,0.237500X0.250000X0.237500X-0.250000X0.237500X-0.250000X-0.237500X0.250000X-0.237500X0*%
%ADD26RoundRect,0.160000X-0.160000X0.222500X-0.160000X-0.222500X0.160000X-0.222500X0.160000X0.222500X0*%
%ADD27RoundRect,0.237500X0.237500X-0.300000X0.237500X0.300000X-0.237500X0.300000X-0.237500X-0.300000X0*%
%ADD28RoundRect,0.160000X0.222500X0.160000X-0.222500X0.160000X-0.222500X-0.160000X0.222500X-0.160000X0*%
%ADD29RoundRect,0.150000X-0.587500X-0.150000X0.587500X-0.150000X0.587500X0.150000X-0.587500X0.150000X0*%
%ADD30RoundRect,0.237500X0.237500X-0.250000X0.237500X0.250000X-0.237500X0.250000X-0.237500X-0.250000X0*%
%ADD31RoundRect,0.237500X-0.237500X0.287500X-0.237500X-0.287500X0.237500X-0.287500X0.237500X0.287500X0*%
%ADD32R,1.200000X1.220000*%
%ADD33RoundRect,0.160000X-0.222500X-0.160000X0.222500X-0.160000X0.222500X0.160000X-0.222500X0.160000X0*%
%ADD34RoundRect,0.150000X0.587500X0.150000X-0.587500X0.150000X-0.587500X-0.150000X0.587500X-0.150000X0*%
%ADD35R,0.600000X1.200000*%
%ADD36RoundRect,0.237500X-0.287500X-0.237500X0.287500X-0.237500X0.287500X0.237500X-0.287500X0.237500X0*%
%ADD37RoundRect,0.160000X0.160000X-0.222500X0.160000X0.222500X-0.160000X0.222500X-0.160000X-0.222500X0*%
G04 APERTURE END LIST*
D10*
%TO.C,SW1*%
X111077800Y-102495300D03*
X111077800Y-100695300D03*
%TD*%
D11*
%TO.C,J1*%
X82790800Y-119930900D03*
D12*
X85790800Y-122130900D03*
X79790800Y-121130900D03*
D13*
X82790800Y-122630900D03*
X82790800Y-128130900D03*
%TD*%
D14*
%TO.C,J2*%
X136346400Y-55471400D03*
D15*
X138886400Y-55471400D03*
X136346400Y-58011400D03*
X138886400Y-58011400D03*
X136346400Y-60551400D03*
X138886400Y-60551400D03*
X136346400Y-63091400D03*
X138886400Y-63091400D03*
X136346400Y-65631400D03*
X138886400Y-65631400D03*
X136346400Y-68171400D03*
X138886400Y-68171400D03*
X136346400Y-70711400D03*
X138886400Y-70711400D03*
X136346400Y-73251400D03*
X138886400Y-73251400D03*
X136346400Y-75791400D03*
X138886400Y-75791400D03*
X136346400Y-78331400D03*
X138886400Y-78331400D03*
X136346400Y-80871400D03*
X138886400Y-80871400D03*
X136346400Y-83411400D03*
X138886400Y-83411400D03*
X136346400Y-85951400D03*
X138886400Y-85951400D03*
X136346400Y-88491400D03*
X138886400Y-88491400D03*
X136346400Y-91031400D03*
X138886400Y-91031400D03*
%TD*%
D16*
%TO.C,C57*%
X103531100Y-94275400D03*
X105256100Y-94275400D03*
%TD*%
D17*
%TO.C,C55*%
X100007100Y-93613800D03*
X98282100Y-93613800D03*
%TD*%
D18*
%TO.C,FB8*%
X94249200Y-124053900D03*
X94249200Y-122303900D03*
%TD*%
D19*
%TO.C,FB13*%
X67959800Y-77832600D03*
X66209800Y-77832600D03*
%TD*%
D20*
%TO.C,C10*%
X134586900Y-100591100D03*
X134586900Y-102316100D03*
%TD*%
%TO.C,C17*%
X125248300Y-108972500D03*
X125248300Y-110697500D03*
%TD*%
D21*
%TO.C,R63*%
X124289600Y-97833300D03*
X126114600Y-97833300D03*
%TD*%
D22*
%TO.C,R62*%
X109514900Y-98753700D03*
X109514900Y-100578700D03*
%TD*%
D17*
%TO.C,C56*%
X105363900Y-98641900D03*
X103638900Y-98641900D03*
%TD*%
D23*
%TO.C,PAD11*%
X145565100Y-54548800D03*
%TD*%
D18*
%TO.C,FB11*%
X62499500Y-113196100D03*
X62499500Y-111446100D03*
%TD*%
D20*
%TO.C,C33*%
X92551100Y-115281400D03*
X92551100Y-117006400D03*
%TD*%
D23*
%TO.C,PAD6*%
X84819300Y-39318700D03*
%TD*%
D20*
%TO.C,C23*%
X143533100Y-115962800D03*
X143533100Y-117687800D03*
%TD*%
D24*
%TO.C,D3*%
X93180700Y-94685500D03*
X93180700Y-91385500D03*
%TD*%
D25*
%TO.C,R43*%
X99999500Y-118700300D03*
X98174500Y-118700300D03*
%TD*%
D17*
%TO.C,C61*%
X68101100Y-72214000D03*
X66376100Y-72214000D03*
%TD*%
D26*
%TO.C,FB6*%
X131028900Y-101096800D03*
X131028900Y-102241800D03*
%TD*%
D25*
%TO.C,R69*%
X70344200Y-100825500D03*
X68519200Y-100825500D03*
%TD*%
D27*
%TO.C,C20*%
X142134000Y-101417700D03*
X142134000Y-99692700D03*
%TD*%
D28*
%TO.C,FB5*%
X138067900Y-103276400D03*
X136922900Y-103276400D03*
%TD*%
D21*
%TO.C,R70*%
X77849700Y-83266000D03*
X79674700Y-83266000D03*
%TD*%
D17*
%TO.C,C74*%
X68125700Y-55646800D03*
X66400700Y-55646800D03*
%TD*%
D29*
%TO.C,U12*%
X128849500Y-94427200D03*
X128849500Y-92527200D03*
X130724500Y-93477200D03*
%TD*%
D23*
%TO.C,PAD14*%
X123813100Y-129734500D03*
%TD*%
D16*
%TO.C,C88*%
X58041000Y-81667300D03*
X59766000Y-81667300D03*
%TD*%
D27*
%TO.C,C64*%
X65022400Y-90403800D03*
X65022400Y-88678800D03*
%TD*%
D20*
%TO.C,C7*%
X139187000Y-96709700D03*
X139187000Y-98434700D03*
%TD*%
%TO.C,C11*%
X125690500Y-70836900D03*
X125690500Y-72561900D03*
%TD*%
D23*
%TO.C,PAD10*%
X145484200Y-84791300D03*
%TD*%
D17*
%TO.C,C81*%
X62242000Y-90799800D03*
X60517000Y-90799800D03*
%TD*%
D23*
%TO.C,PAD17*%
X116212100Y-129734500D03*
%TD*%
D22*
%TO.C,R15*%
X62019600Y-105149500D03*
X62019600Y-106974500D03*
%TD*%
D23*
%TO.C,PAD1*%
X145484200Y-62069000D03*
%TD*%
D17*
%TO.C,C54*%
X102776300Y-101606900D03*
X101051300Y-101606900D03*
%TD*%
D25*
%TO.C,R44*%
X105079500Y-118700300D03*
X103254500Y-118700300D03*
%TD*%
D21*
%TO.C,R6*%
X107434300Y-78650200D03*
X109259300Y-78650200D03*
%TD*%
D17*
%TO.C,C91*%
X83643200Y-69509500D03*
X81918200Y-69509500D03*
%TD*%
D22*
%TO.C,R13*%
X71037900Y-105361700D03*
X71037900Y-107186700D03*
%TD*%
D30*
%TO.C,R10*%
X87087100Y-102292400D03*
X87087100Y-100467400D03*
%TD*%
D21*
%TO.C,R7*%
X107289400Y-83509800D03*
X109114400Y-83509800D03*
%TD*%
D22*
%TO.C,R14*%
X66806700Y-105411900D03*
X66806700Y-107236900D03*
%TD*%
D17*
%TO.C,C93*%
X87244700Y-78186000D03*
X85519700Y-78186000D03*
%TD*%
D27*
%TO.C,C26*%
X113656100Y-122949800D03*
X113656100Y-121224800D03*
%TD*%
D31*
%TO.C,FB1*%
X124884900Y-50011800D03*
X124884900Y-51761800D03*
%TD*%
D20*
%TO.C,C8*%
X130770500Y-68296900D03*
X130770500Y-70021900D03*
%TD*%
D23*
%TO.C,PAD16*%
X77460800Y-39318700D03*
%TD*%
%TO.C,PAD3*%
X93570600Y-129653600D03*
%TD*%
D32*
%TO.C,TS1*%
X106353800Y-39156900D03*
X109453800Y-39156900D03*
%TD*%
D17*
%TO.C,C89*%
X68477700Y-39468000D03*
X66752700Y-39468000D03*
%TD*%
D23*
%TO.C,PAD13*%
X145484200Y-69589100D03*
%TD*%
D22*
%TO.C,R72*%
X78344900Y-63186000D03*
X78344900Y-65011000D03*
%TD*%
D27*
%TO.C,C72*%
X72659500Y-113183600D03*
X72659500Y-111458600D03*
%TD*%
D17*
%TO.C,C16*%
X133003000Y-112584500D03*
X131278000Y-112584500D03*
%TD*%
D20*
%TO.C,C9*%
X137747000Y-105828100D03*
X137747000Y-107553100D03*
%TD*%
D30*
%TO.C,R17*%
X78259600Y-71185000D03*
X78259600Y-69360000D03*
%TD*%
D27*
%TO.C,C84*%
X83359900Y-108030900D03*
X83359900Y-106305900D03*
%TD*%
D16*
%TO.C,C73*%
X58623400Y-64130400D03*
X60348400Y-64130400D03*
%TD*%
D17*
%TO.C,C83*%
X62242000Y-95916400D03*
X60517000Y-95916400D03*
%TD*%
D30*
%TO.C,R23*%
X130770500Y-75151900D03*
X130770500Y-73326900D03*
%TD*%
D17*
%TO.C,C65*%
X70266100Y-89712200D03*
X68541100Y-89712200D03*
%TD*%
D20*
%TO.C,C80*%
X56299500Y-90799800D03*
X56299500Y-92524800D03*
%TD*%
D16*
%TO.C,C62*%
X58615100Y-53664600D03*
X60340100Y-53664600D03*
%TD*%
D25*
%TO.C,R46*%
X131319800Y-54790400D03*
X129494800Y-54790400D03*
%TD*%
D23*
%TO.C,PAD15*%
X115504900Y-39237800D03*
%TD*%
D16*
%TO.C,C85*%
X58409200Y-75425500D03*
X60134200Y-75425500D03*
%TD*%
%TO.C,C2*%
X124828000Y-56459400D03*
X126553000Y-56459400D03*
%TD*%
D23*
%TO.C,PAD2*%
X100848200Y-129977100D03*
%TD*%
D21*
%TO.C,R52*%
X103312100Y-91073800D03*
X105137100Y-91073800D03*
%TD*%
D20*
%TO.C,C25*%
X102497100Y-107154700D03*
X102497100Y-108879700D03*
%TD*%
D16*
%TO.C,C35*%
X98238400Y-122693700D03*
X99963400Y-122693700D03*
%TD*%
D23*
%TO.C,PAD8*%
X92501200Y-39399500D03*
%TD*%
D20*
%TO.C,C78*%
X83939400Y-96050700D03*
X83939400Y-97775700D03*
%TD*%
D16*
%TO.C,C22*%
X131349900Y-115459600D03*
X133074900Y-115459600D03*
%TD*%
D23*
%TO.C,PAD7*%
X100183100Y-39237800D03*
%TD*%
D33*
%TO.C,FB15*%
X82924500Y-82750400D03*
X84069500Y-82750400D03*
%TD*%
D34*
%TO.C,U6*%
X115264500Y-115210300D03*
X115264500Y-117110300D03*
X113389500Y-116160300D03*
%TD*%
D20*
%TO.C,C58*%
X57419500Y-111458600D03*
X57419500Y-113183600D03*
%TD*%
D29*
%TO.C,U5*%
X107017800Y-108967200D03*
X107017800Y-107067200D03*
X108892800Y-108017200D03*
%TD*%
D17*
%TO.C,C59*%
X58741400Y-40840500D03*
X60466400Y-40840500D03*
%TD*%
D30*
%TO.C,R73*%
X96520000Y-82192500D03*
X96520000Y-80367500D03*
%TD*%
D22*
%TO.C,R25*%
X103961600Y-112797700D03*
X103961600Y-114622700D03*
%TD*%
D25*
%TO.C,R4*%
X109699200Y-70640300D03*
X107874200Y-70640300D03*
%TD*%
D21*
%TO.C,R8*%
X107165100Y-87973300D03*
X108990100Y-87973300D03*
%TD*%
D20*
%TO.C,C38*%
X137224300Y-43666700D03*
X137224300Y-45391700D03*
%TD*%
D35*
%TO.C,U11*%
X96489400Y-96798900D03*
X97439400Y-96798900D03*
X98389400Y-96798900D03*
X98389400Y-99298900D03*
X97439400Y-99298900D03*
X96489400Y-99298900D03*
%TD*%
D25*
%TO.C,R49*%
X131283800Y-51735600D03*
X129458800Y-51735600D03*
%TD*%
D22*
%TO.C,R64*%
X121967700Y-93686300D03*
X121967700Y-95511300D03*
%TD*%
%TO.C,R16*%
X55972000Y-104831200D03*
X55972000Y-106656200D03*
%TD*%
D36*
%TO.C,L1*%
X145353500Y-113626800D03*
X147103500Y-113626800D03*
%TD*%
D22*
%TO.C,R50*%
X117924500Y-97999000D03*
X117924500Y-99824000D03*
%TD*%
D30*
%TO.C,R47*%
X132471900Y-47240500D03*
X132471900Y-45415500D03*
%TD*%
D27*
%TO.C,C12*%
X127788300Y-103255400D03*
X127788300Y-101530400D03*
%TD*%
D23*
%TO.C,PAD12*%
X131575900Y-129653600D03*
%TD*%
D30*
%TO.C,R9*%
X92100600Y-102130700D03*
X92100600Y-100305700D03*
%TD*%
%TO.C,R39*%
X97217500Y-108915400D03*
X97217500Y-107090400D03*
%TD*%
D16*
%TO.C,C15*%
X136093800Y-110715700D03*
X137818800Y-110715700D03*
%TD*%
D27*
%TO.C,C75*%
X78512800Y-108030900D03*
X78512800Y-106305900D03*
%TD*%
D25*
%TO.C,R5*%
X109699200Y-75308600D03*
X107874200Y-75308600D03*
%TD*%
D27*
%TO.C,C87*%
X88399700Y-108128300D03*
X88399700Y-106403300D03*
%TD*%
D22*
%TO.C,R61*%
X113881400Y-98753700D03*
X113881400Y-100578700D03*
%TD*%
D19*
%TO.C,L2*%
X141712700Y-113267400D03*
X139962700Y-113267400D03*
%TD*%
D36*
%TO.C,L3*%
X138201700Y-116465900D03*
X139951700Y-116465900D03*
%TD*%
D17*
%TO.C,C86*%
X68477700Y-44167300D03*
X66752700Y-44167300D03*
%TD*%
%TO.C,C63*%
X68046200Y-66795500D03*
X66321200Y-66795500D03*
%TD*%
D22*
%TO.C,R24*%
X125248300Y-114002500D03*
X125248300Y-115827500D03*
%TD*%
D26*
%TO.C,FB14*%
X65773700Y-100244700D03*
X65773700Y-101389700D03*
%TD*%
D22*
%TO.C,R11*%
X81326200Y-100726000D03*
X81326200Y-102551000D03*
%TD*%
D25*
%TO.C,R71*%
X62292000Y-100959800D03*
X60467000Y-100959800D03*
%TD*%
D16*
%TO.C,C1*%
X124659700Y-44959000D03*
X126384700Y-44959000D03*
%TD*%
D36*
%TO.C,FB12*%
X58632700Y-47653800D03*
X60382700Y-47653800D03*
%TD*%
D17*
%TO.C,C71*%
X70357100Y-94772000D03*
X68632100Y-94772000D03*
%TD*%
%TO.C,C92*%
X87244700Y-73092000D03*
X85519700Y-73092000D03*
%TD*%
D16*
%TO.C,C76*%
X58285600Y-69491300D03*
X60010600Y-69491300D03*
%TD*%
D21*
%TO.C,R59*%
X116149500Y-94113600D03*
X117974500Y-94113600D03*
%TD*%
D17*
%TO.C,C90*%
X83662800Y-63338600D03*
X81937800Y-63338600D03*
%TD*%
D27*
%TO.C,C37*%
X103952700Y-124405300D03*
X103952700Y-122680300D03*
%TD*%
D20*
%TO.C,C18*%
X130328300Y-106432500D03*
X130328300Y-108157500D03*
%TD*%
D25*
%TO.C,R1*%
X109652100Y-57059700D03*
X107827100Y-57059700D03*
%TD*%
D16*
%TO.C,C13*%
X128999400Y-97520400D03*
X130724400Y-97520400D03*
%TD*%
%TO.C,C67*%
X58648000Y-59297100D03*
X60373000Y-59297100D03*
%TD*%
D22*
%TO.C,R12*%
X77082300Y-100832100D03*
X77082300Y-102657100D03*
%TD*%
D27*
%TO.C,C14*%
X133266100Y-107594800D03*
X133266100Y-105869800D03*
%TD*%
D23*
%TO.C,PAD5*%
X145565100Y-92554000D03*
%TD*%
D27*
%TO.C,C19*%
X127788300Y-113237500D03*
X127788300Y-111512500D03*
%TD*%
D17*
%TO.C,C21*%
X136668600Y-119432300D03*
X134943600Y-119432300D03*
%TD*%
D21*
%TO.C,R40*%
X96894100Y-112288600D03*
X98719100Y-112288600D03*
%TD*%
D23*
%TO.C,PAD4*%
X145484200Y-77190200D03*
%TD*%
D17*
%TO.C,C68*%
X68227400Y-61466000D03*
X66502400Y-61466000D03*
%TD*%
D27*
%TO.C,C66*%
X67579500Y-113743900D03*
X67579500Y-112018900D03*
%TD*%
D16*
%TO.C,C60*%
X66255300Y-83497900D03*
X67980300Y-83497900D03*
%TD*%
D26*
%TO.C,FB16*%
X56299500Y-100387300D03*
X56299500Y-101532300D03*
%TD*%
D22*
%TO.C,R75*%
X79830000Y-77301400D03*
X79830000Y-79126400D03*
%TD*%
%TO.C,R27*%
X109247000Y-117787800D03*
X109247000Y-119612800D03*
%TD*%
D37*
%TO.C,FB4*%
X127577100Y-75023700D03*
X127577100Y-73878700D03*
%TD*%
D25*
%TO.C,R3*%
X109806300Y-66066300D03*
X107981300Y-66066300D03*
%TD*%
D16*
%TO.C,C82*%
X77994000Y-89521800D03*
X79719000Y-89521800D03*
%TD*%
D30*
%TO.C,R74*%
X96039600Y-86425000D03*
X96039600Y-84600000D03*
%TD*%
D23*
%TO.C,PAD9*%
X108611000Y-129815400D03*
%TD*%
D22*
%TO.C,R26*%
X114327000Y-109255300D03*
X114327000Y-111080300D03*
%TD*%
D16*
%TO.C,C79*%
X77952800Y-96881800D03*
X79677800Y-96881800D03*
%TD*%
D17*
%TO.C,C77*%
X68263200Y-49874700D03*
X66538200Y-49874700D03*
%TD*%
D25*
%TO.C,R2*%
X109523300Y-61539400D03*
X107698300Y-61539400D03*
%TD*%
M02*
